# Avalon chunk: forest_glade_01
# Generated by tools/Avalon.ChunkGen; regenerate it rather than editing it by hand
o Floor
v 0 -0.2 0
v 30 -0.2 0
v 30 -0.2 30
v 0 -0.2 30
v 0 0 0
v 30 0 0
v 30 0 30
v 0 0 30
f 5 7 6
f 5 8 7
f 1 2 3
f 1 3 4
f 1 6 2
f 1 5 6
f 4 3 7
f 4 7 8
f 1 4 8
f 1 8 5
f 2 7 3
f 2 6 7
o Blocker_1
v 2 0 2
v 9 0 2
v 9 0 9
v 2 0 9
v 2 3 2
v 9 3 2
v 9 3 9
v 2 3 9
f 13 15 14
f 13 16 15
f 9 10 11
f 9 11 12
f 9 14 10
f 9 13 14
f 12 11 15
f 12 15 16
f 9 12 16
f 9 16 13
f 10 15 11
f 10 14 15
o Blocker_2
v 8.5 0 24
v 8.1651 0 25.25
v 7.25 0 26.1651
v 6 0 26.5
v 4.75 0 26.1651
v 3.8349 0 25.25
v 3.5 0 24
v 3.8349 0 22.75
v 4.75 0 21.8349
v 6 0 21.5
v 7.25 0 21.8349
v 8.1651 0 22.75
v 8.5 3 24
v 8.1651 3 25.25
v 7.25 3 26.1651
v 6 3 26.5
v 4.75 3 26.1651
v 3.8349 3 25.25
v 3.5 3 24
v 3.8349 3 22.75
v 4.75 3 21.8349
v 6 3 21.5
v 7.25 3 21.8349
v 8.1651 3 22.75
v 6 0 24
v 6 3 24
f 42 30 29
f 41 17 18
f 17 30 18
f 17 29 30
f 42 31 30
f 41 18 19
f 18 31 19
f 18 30 31
f 42 32 31
f 41 19 20
f 19 32 20
f 19 31 32
f 42 33 32
f 41 20 21
f 20 33 21
f 20 32 33
f 42 34 33
f 41 21 22
f 21 34 22
f 21 33 34
f 42 35 34
f 41 22 23
f 22 35 23
f 22 34 35
f 42 36 35
f 41 23 24
f 23 36 24
f 23 35 36
f 42 37 36
f 41 24 25
f 24 37 25
f 24 36 37
f 42 38 37
f 41 25 26
f 25 38 26
f 25 37 38
f 42 39 38
f 41 26 27
f 26 39 27
f 26 38 39
f 42 40 39
f 41 27 28
f 27 40 28
f 27 39 40
f 42 29 40
f 41 28 17
f 28 29 17
f 28 40 29
o Blocker_3
v 26.5 0 6
v 26.1651 0 7.25
v 25.25 0 8.1651
v 24 0 8.5
v 22.75 0 8.1651
v 21.8349 0 7.25
v 21.5 0 6
v 21.8349 0 4.75
v 22.75 0 3.8349
v 24 0 3.5
v 25.25 0 3.8349
v 26.1651 0 4.75
v 26.5 3 6
v 26.1651 3 7.25
v 25.25 3 8.1651
v 24 3 8.5
v 22.75 3 8.1651
v 21.8349 3 7.25
v 21.5 3 6
v 21.8349 3 4.75
v 22.75 3 3.8349
v 24 3 3.5
v 25.25 3 3.8349
v 26.1651 3 4.75
v 24 0 6
v 24 3 6
f 68 56 55
f 67 43 44
f 43 56 44
f 43 55 56
f 68 57 56
f 67 44 45
f 44 57 45
f 44 56 57
f 68 58 57
f 67 45 46
f 45 58 46
f 45 57 58
f 68 59 58
f 67 46 47
f 46 59 47
f 46 58 59
f 68 60 59
f 67 47 48
f 47 60 48
f 47 59 60
f 68 61 60
f 67 48 49
f 48 61 49
f 48 60 61
f 68 62 61
f 67 49 50
f 49 62 50
f 49 61 62
f 68 63 62
f 67 50 51
f 50 63 51
f 50 62 63
f 68 64 63
f 67 51 52
f 51 64 52
f 51 63 64
f 68 65 64
f 67 52 53
f 52 65 53
f 52 64 65
f 68 66 65
f 67 53 54
f 53 66 54
f 53 65 66
f 68 55 66
f 67 54 43
f 54 55 43
f 54 66 55
o Blocker_4
v 26 0 24
v 25.732 0 25
v 25 0 25.732
v 24 0 26
v 23 0 25.732
v 22.268 0 25
v 22 0 24
v 22.268 0 23
v 23 0 22.268
v 24 0 22
v 25 0 22.268
v 25.732 0 23
v 26 3 24
v 25.732 3 25
v 25 3 25.732
v 24 3 26
v 23 3 25.732
v 22.268 3 25
v 22 3 24
v 22.268 3 23
v 23 3 22.268
v 24 3 22
v 25 3 22.268
v 25.732 3 23
v 24 0 24
v 24 3 24
f 94 82 81
f 93 69 70
f 69 82 70
f 69 81 82
f 94 83 82
f 93 70 71
f 70 83 71
f 70 82 83
f 94 84 83
f 93 71 72
f 71 84 72
f 71 83 84
f 94 85 84
f 93 72 73
f 72 85 73
f 72 84 85
f 94 86 85
f 93 73 74
f 73 86 74
f 73 85 86
f 94 87 86
f 93 74 75
f 74 87 75
f 74 86 87
f 94 88 87
f 93 75 76
f 75 88 76
f 75 87 88
f 94 89 88
f 93 76 77
f 76 89 77
f 76 88 89
f 94 90 89
f 93 77 78
f 77 90 78
f 77 89 90
f 94 91 90
f 93 78 79
f 78 91 79
f 78 90 91
f 94 92 91
f 93 79 80
f 79 92 80
f 79 91 92
f 94 81 92
f 93 80 69
f 80 81 69
f 80 92 81
