# Avalon chunk: forest_ruin_01
# Generated by tools/Avalon.ChunkGen; regenerate it rather than editing it by hand
o Floor
v 0 -0.2 0
v 30 -0.2 0
v 30 -0.2 30
v 0 -0.2 30
v 0 0 0
v 30 0 0
v 30 0 30
v 0 0 30
f 5 7 6
f 5 8 7
f 1 2 3
f 1 3 4
f 1 6 2
f 1 5 6
f 4 3 7
f 4 7 8
f 1 4 8
f 1 8 5
f 2 7 3
f 2 6 7
o Blocker_1
v 2 0 2
v 9 0 2
v 9 0 4
v 2 0 4
v 2 3 2
v 9 3 2
v 9 3 4
v 2 3 4
f 13 15 14
f 13 16 15
f 9 10 11
f 9 11 12
f 9 14 10
f 9 13 14
f 12 11 15
f 12 15 16
f 9 12 16
f 9 16 13
f 10 15 11
f 10 14 15
o Blocker_2
v 2 0 4
v 4 0 4
v 4 0 9
v 2 0 9
v 2 3 4
v 4 3 4
v 4 3 9
v 2 3 9
f 21 23 22
f 21 24 23
f 17 18 19
f 17 19 20
f 17 22 18
f 17 21 22
f 20 19 23
f 20 23 24
f 17 20 24
f 17 24 21
f 18 23 19
f 18 22 23
o Blocker_3
v 21 0 26
v 28 0 26
v 28 0 28
v 21 0 28
v 21 3 26
v 28 3 26
v 28 3 28
v 21 3 28
f 29 31 30
f 29 32 31
f 25 26 27
f 25 27 28
f 25 30 26
f 25 29 30
f 28 27 31
f 28 31 32
f 25 28 32
f 25 32 29
f 26 31 27
f 26 30 31
o Blocker_4
v 26 0 21
v 28 0 21
v 28 0 26
v 26 0 26
v 26 3 21
v 28 3 21
v 28 3 26
v 26 3 26
f 37 39 38
f 37 40 39
f 33 34 35
f 33 35 36
f 33 38 34
f 33 37 38
f 36 35 39
f 36 39 40
f 33 36 40
f 33 40 37
f 34 39 35
f 34 38 39
o Blocker_5
v 25.5 0 6
v 25.299 0 6.75
v 24.75 0 7.299
v 24 0 7.5
v 23.25 0 7.299
v 22.701 0 6.75
v 22.5 0 6
v 22.701 0 5.25
v 23.25 0 4.701
v 24 0 4.5
v 24.75 0 4.701
v 25.299 0 5.25
v 25.5 3 6
v 25.299 3 6.75
v 24.75 3 7.299
v 24 3 7.5
v 23.25 3 7.299
v 22.701 3 6.75
v 22.5 3 6
v 22.701 3 5.25
v 23.25 3 4.701
v 24 3 4.5
v 24.75 3 4.701
v 25.299 3 5.25
v 24 0 6
v 24 3 6
f 66 54 53
f 65 41 42
f 41 54 42
f 41 53 54
f 66 55 54
f 65 42 43
f 42 55 43
f 42 54 55
f 66 56 55
f 65 43 44
f 43 56 44
f 43 55 56
f 66 57 56
f 65 44 45
f 44 57 45
f 44 56 57
f 66 58 57
f 65 45 46
f 45 58 46
f 45 57 58
f 66 59 58
f 65 46 47
f 46 59 47
f 46 58 59
f 66 60 59
f 65 47 48
f 47 60 48
f 47 59 60
f 66 61 60
f 65 48 49
f 48 61 49
f 48 60 61
f 66 62 61
f 65 49 50
f 49 62 50
f 49 61 62
f 66 63 62
f 65 50 51
f 50 63 51
f 50 62 63
f 66 64 63
f 65 51 52
f 51 64 52
f 51 63 64
f 66 53 64
f 65 52 41
f 52 53 41
f 52 64 53
o Blocker_6
v 7.5 0 24
v 7.299 0 24.75
v 6.75 0 25.299
v 6 0 25.5
v 5.25 0 25.299
v 4.701 0 24.75
v 4.5 0 24
v 4.701 0 23.25
v 5.25 0 22.701
v 6 0 22.5
v 6.75 0 22.701
v 7.299 0 23.25
v 7.5 3 24
v 7.299 3 24.75
v 6.75 3 25.299
v 6 3 25.5
v 5.25 3 25.299
v 4.701 3 24.75
v 4.5 3 24
v 4.701 3 23.25
v 5.25 3 22.701
v 6 3 22.5
v 6.75 3 22.701
v 7.299 3 23.25
v 6 0 24
v 6 3 24
f 92 80 79
f 91 67 68
f 67 80 68
f 67 79 80
f 92 81 80
f 91 68 69
f 68 81 69
f 68 80 81
f 92 82 81
f 91 69 70
f 69 82 70
f 69 81 82
f 92 83 82
f 91 70 71
f 70 83 71
f 70 82 83
f 92 84 83
f 91 71 72
f 71 84 72
f 71 83 84
f 92 85 84
f 91 72 73
f 72 85 73
f 72 84 85
f 92 86 85
f 91 73 74
f 73 86 74
f 73 85 86
f 92 87 86
f 91 74 75
f 74 87 75
f 74 86 87
f 92 88 87
f 91 75 76
f 75 88 76
f 75 87 88
f 92 89 88
f 91 76 77
f 76 89 77
f 76 88 89
f 92 90 89
f 91 77 78
f 77 90 78
f 77 89 90
f 92 79 90
f 91 78 67
f 78 79 67
f 78 90 79
