# Avalon chunk: forest_rocks_02
# Generated by tools/Avalon.ChunkGen; regenerate it rather than editing it by hand
o Floor
v 0 -0.2 0
v 30 -0.2 0
v 30 -0.2 30
v 0 -0.2 30
v 0 0 0
v 30 0 0
v 30 0 30
v 0 0 30
f 5 7 6
f 5 8 7
f 1 2 3
f 1 3 4
f 1 6 2
f 1 5 6
f 4 3 7
f 4 7 8
f 1 4 8
f 1 8 5
f 2 7 3
f 2 6 7
o Blocker_1
v 3 0 3
v 9 0 3
v 9 0 9
v 3 0 9
v 3 3 3
v 9 3 3
v 9 3 9
v 3 3 9
f 13 15 14
f 13 16 15
f 9 10 11
f 9 11 12
f 9 14 10
f 9 13 14
f 12 11 15
f 12 15 16
f 9 12 16
f 9 16 13
f 10 15 11
f 10 14 15
o Blocker_2
v 3 0 21
v 9 0 21
v 9 0 27
v 3 0 27
v 3 3 21
v 9 3 21
v 9 3 27
v 3 3 27
f 21 23 22
f 21 24 23
f 17 18 19
f 17 19 20
f 17 22 18
f 17 21 22
f 20 19 23
f 20 23 24
f 17 20 24
f 17 24 21
f 18 23 19
f 18 22 23
o Blocker_3
v 26 0 24
v 25.732 0 25
v 25 0 25.732
v 24 0 26
v 23 0 25.732
v 22.268 0 25
v 22 0 24
v 22.268 0 23
v 23 0 22.268
v 24 0 22
v 25 0 22.268
v 25.732 0 23
v 26 3 24
v 25.732 3 25
v 25 3 25.732
v 24 3 26
v 23 3 25.732
v 22.268 3 25
v 22 3 24
v 22.268 3 23
v 23 3 22.268
v 24 3 22
v 25 3 22.268
v 25.732 3 23
v 24 0 24
v 24 3 24
f 50 38 37
f 49 25 26
f 25 38 26
f 25 37 38
f 50 39 38
f 49 26 27
f 26 39 27
f 26 38 39
f 50 40 39
f 49 27 28
f 27 40 28
f 27 39 40
f 50 41 40
f 49 28 29
f 28 41 29
f 28 40 41
f 50 42 41
f 49 29 30
f 29 42 30
f 29 41 42
f 50 43 42
f 49 30 31
f 30 43 31
f 30 42 43
f 50 44 43
f 49 31 32
f 31 44 32
f 31 43 44
f 50 45 44
f 49 32 33
f 32 45 33
f 32 44 45
f 50 46 45
f 49 33 34
f 33 46 34
f 33 45 46
f 50 47 46
f 49 34 35
f 34 47 35
f 34 46 47
f 50 48 47
f 49 35 36
f 35 48 36
f 35 47 48
f 50 37 48
f 49 36 25
f 36 37 25
f 36 48 37
