# Avalon chunk: forest_thicket_02
# Generated by tools/Avalon.ChunkGen; regenerate it rather than editing it by hand
o Floor
v 0 -0.2 0
v 30 -0.2 0
v 30 -0.2 30
v 0 -0.2 30
v 0 0 0
v 30 0 0
v 30 0 30
v 0 0 30
f 5 7 6
f 5 8 7
f 1 2 3
f 1 3 4
f 1 6 2
f 1 5 6
f 4 3 7
f 4 7 8
f 1 4 8
f 1 8 5
f 2 7 3
f 2 6 7
o Blocker_1
v 10 0 24
v 9.5981 0 25.5
v 8.5 0 26.5981
v 7 0 27
v 5.5 0 26.5981
v 4.4019 0 25.5
v 4 0 24
v 4.4019 0 22.5
v 5.5 0 21.4019
v 7 0 21
v 8.5 0 21.4019
v 9.5981 0 22.5
v 10 3 24
v 9.5981 3 25.5
v 8.5 3 26.5981
v 7 3 27
v 5.5 3 26.5981
v 4.4019 3 25.5
v 4 3 24
v 4.4019 3 22.5
v 5.5 3 21.4019
v 7 3 21
v 8.5 3 21.4019
v 9.5981 3 22.5
v 7 0 24
v 7 3 24
f 34 22 21
f 33 9 10
f 9 22 10
f 9 21 22
f 34 23 22
f 33 10 11
f 10 23 11
f 10 22 23
f 34 24 23
f 33 11 12
f 11 24 12
f 11 23 24
f 34 25 24
f 33 12 13
f 12 25 13
f 12 24 25
f 34 26 25
f 33 13 14
f 13 26 14
f 13 25 26
f 34 27 26
f 33 14 15
f 14 27 15
f 14 26 27
f 34 28 27
f 33 15 16
f 15 28 16
f 15 27 28
f 34 29 28
f 33 16 17
f 16 29 17
f 16 28 29
f 34 30 29
f 33 17 18
f 17 30 18
f 17 29 30
f 34 31 30
f 33 18 19
f 18 31 19
f 18 30 31
f 34 32 31
f 33 19 20
f 19 32 20
f 19 31 32
f 34 21 32
f 33 20 9
f 20 21 9
f 20 32 21
o Blocker_2
v 25 0 25
v 24.732 0 26
v 24 0 26.732
v 23 0 27
v 22 0 26.732
v 21.268 0 26
v 21 0 25
v 21.268 0 24
v 22 0 23.268
v 23 0 23
v 24 0 23.268
v 24.732 0 24
v 25 3 25
v 24.732 3 26
v 24 3 26.732
v 23 3 27
v 22 3 26.732
v 21.268 3 26
v 21 3 25
v 21.268 3 24
v 22 3 23.268
v 23 3 23
v 24 3 23.268
v 24.732 3 24
v 23 0 25
v 23 3 25
f 60 48 47
f 59 35 36
f 35 48 36
f 35 47 48
f 60 49 48
f 59 36 37
f 36 49 37
f 36 48 49
f 60 50 49
f 59 37 38
f 37 50 38
f 37 49 50
f 60 51 50
f 59 38 39
f 38 51 39
f 38 50 51
f 60 52 51
f 59 39 40
f 39 52 40
f 39 51 52
f 60 53 52
f 59 40 41
f 40 53 41
f 40 52 53
f 60 54 53
f 59 41 42
f 41 54 42
f 41 53 54
f 60 55 54
f 59 42 43
f 42 55 43
f 42 54 55
f 60 56 55
f 59 43 44
f 43 56 44
f 43 55 56
f 60 57 56
f 59 44 45
f 44 57 45
f 44 56 57
f 60 58 57
f 59 45 46
f 45 58 46
f 45 57 58
f 60 47 58
f 59 46 35
f 46 47 35
f 46 58 47
o Blocker_3
v 3 0 3
v 9 0 3
v 9 0 8
v 3 0 8
v 3 3 3
v 9 3 3
v 9 3 8
v 3 3 8
f 65 67 66
f 65 68 67
f 61 62 63
f 61 63 64
f 61 66 62
f 61 65 66
f 64 63 67
f 64 67 68
f 61 64 68
f 61 68 65
f 62 67 63
f 62 66 67
