# Avalon chunk: forest_grove_ruin_nw
# Generated by tools/Avalon.ChunkGen; regenerate it rather than editing it by hand
o Floor
v 0 -0.2 0
v 30 -0.2 0
v 30 -0.2 30
v 0 -0.2 30
v 0 0 0
v 30 0 0
v 30 0 30
v 0 0 30
f 5 7 6
f 5 8 7
f 1 2 3
f 1 3 4
f 1 6 2
f 1 5 6
f 4 3 7
f 4 7 8
f 1 4 8
f 1 8 5
f 2 7 3
f 2 6 7
o Blocker_1
v 21.5 0 10
v 21.299 0 10.75
v 20.75 0 11.299
v 20 0 11.5
v 19.25 0 11.299
v 18.701 0 10.75
v 18.5 0 10
v 18.701 0 9.25
v 19.25 0 8.701
v 20 0 8.5
v 20.75 0 8.701
v 21.299 0 9.25
v 21.5 3 10
v 21.299 3 10.75
v 20.75 3 11.299
v 20 3 11.5
v 19.25 3 11.299
v 18.701 3 10.75
v 18.5 3 10
v 18.701 3 9.25
v 19.25 3 8.701
v 20 3 8.5
v 20.75 3 8.701
v 21.299 3 9.25
v 20 0 10
v 20 3 10
f 34 22 21
f 33 9 10
f 9 22 10
f 9 21 22
f 34 23 22
f 33 10 11
f 10 23 11
f 10 22 23
f 34 24 23
f 33 11 12
f 11 24 12
f 11 23 24
f 34 25 24
f 33 12 13
f 12 25 13
f 12 24 25
f 34 26 25
f 33 13 14
f 13 26 14
f 13 25 26
f 34 27 26
f 33 14 15
f 14 27 15
f 14 26 27
f 34 28 27
f 33 15 16
f 15 28 16
f 15 27 28
f 34 29 28
f 33 16 17
f 16 29 17
f 16 28 29
f 34 30 29
f 33 17 18
f 17 30 18
f 17 29 30
f 34 31 30
f 33 18 19
f 18 31 19
f 18 30 31
f 34 32 31
f 33 19 20
f 19 32 20
f 19 31 32
f 34 21 32
f 33 20 9
f 20 21 9
f 20 32 21
o Blocker_2
v 4 0 20
v 12 0 20
v 12 0 24
v 4 0 24
v 4 3 20
v 12 3 20
v 12 3 24
v 4 3 24
f 39 41 40
f 39 42 41
f 35 36 37
f 35 37 38
f 35 40 36
f 35 39 40
f 38 37 41
f 38 41 42
f 35 38 42
f 35 42 39
f 36 41 37
f 36 40 41
