# Avalon chunk: forest_clearing_big_se
# Generated by tools/Avalon.ChunkGen; regenerate it rather than editing it by hand
o Floor
v 0 -0.2 0
v 30 -0.2 0
v 30 -0.2 30
v 0 -0.2 30
v 0 0 0
v 30 0 0
v 30 0 30
v 0 0 30
f 5 7 6
f 5 8 7
f 1 2 3
f 1 3 4
f 1 6 2
f 1 5 6
f 4 3 7
f 4 7 8
f 1 4 8
f 1 8 5
f 2 7 3
f 2 6 7
o Blocker_1
v 27 0 6
v 26.5981 0 7.5
v 25.5 0 8.5981
v 24 0 9
v 22.5 0 8.5981
v 21.4019 0 7.5
v 21 0 6
v 21.4019 0 4.5
v 22.5 0 3.4019
v 24 0 3
v 25.5 0 3.4019
v 26.5981 0 4.5
v 27 3 6
v 26.5981 3 7.5
v 25.5 3 8.5981
v 24 3 9
v 22.5 3 8.5981
v 21.4019 3 7.5
v 21 3 6
v 21.4019 3 4.5
v 22.5 3 3.4019
v 24 3 3
v 25.5 3 3.4019
v 26.5981 3 4.5
v 24 0 6
v 24 3 6
f 34 22 21
f 33 9 10
f 9 22 10
f 9 21 22
f 34 23 22
f 33 10 11
f 10 23 11
f 10 22 23
f 34 24 23
f 33 11 12
f 11 24 12
f 11 23 24
f 34 25 24
f 33 12 13
f 12 25 13
f 12 24 25
f 34 26 25
f 33 13 14
f 13 26 14
f 13 25 26
f 34 27 26
f 33 14 15
f 14 27 15
f 14 26 27
f 34 28 27
f 33 15 16
f 15 28 16
f 15 27 28
f 34 29 28
f 33 16 17
f 16 29 17
f 16 28 29
f 34 30 29
f 33 17 18
f 17 30 18
f 17 29 30
f 34 31 30
f 33 18 19
f 18 31 19
f 18 30 31
f 34 32 31
f 33 19 20
f 19 32 20
f 19 31 32
f 34 21 32
f 33 20 9
f 20 21 9
f 20 32 21
