# Avalon chunk: forest_ruin_02
# Generated by tools/Avalon.ChunkGen; regenerate it rather than editing it by hand
o Floor
v 0 -0.2 0
v 30 -0.2 0
v 30 -0.2 30
v 0 -0.2 30
v 0 0 0
v 30 0 0
v 30 0 30
v 0 0 30
f 5 7 6
f 5 8 7
f 1 2 3
f 1 3 4
f 1 6 2
f 1 5 6
f 4 3 7
f 4 7 8
f 1 4 8
f 1 8 5
f 2 7 3
f 2 6 7
o Blocker_1
v 9.5 0 8
v 9.299 0 8.75
v 8.75 0 9.299
v 8 0 9.5
v 7.25 0 9.299
v 6.701 0 8.75
v 6.5 0 8
v 6.701 0 7.25
v 7.25 0 6.701
v 8 0 6.5
v 8.75 0 6.701
v 9.299 0 7.25
v 9.5 3 8
v 9.299 3 8.75
v 8.75 3 9.299
v 8 3 9.5
v 7.25 3 9.299
v 6.701 3 8.75
v 6.5 3 8
v 6.701 3 7.25
v 7.25 3 6.701
v 8 3 6.5
v 8.75 3 6.701
v 9.299 3 7.25
v 8 0 8
v 8 3 8
f 34 22 21
f 33 9 10
f 9 22 10
f 9 21 22
f 34 23 22
f 33 10 11
f 10 23 11
f 10 22 23
f 34 24 23
f 33 11 12
f 11 24 12
f 11 23 24
f 34 25 24
f 33 12 13
f 12 25 13
f 12 24 25
f 34 26 25
f 33 13 14
f 13 26 14
f 13 25 26
f 34 27 26
f 33 14 15
f 14 27 15
f 14 26 27
f 34 28 27
f 33 15 16
f 15 28 16
f 15 27 28
f 34 29 28
f 33 16 17
f 16 29 17
f 16 28 29
f 34 30 29
f 33 17 18
f 17 30 18
f 17 29 30
f 34 31 30
f 33 18 19
f 18 31 19
f 18 30 31
f 34 32 31
f 33 19 20
f 19 32 20
f 19 31 32
f 34 21 32
f 33 20 9
f 20 21 9
f 20 32 21
o Blocker_2
v 23.5 0 8
v 23.299 0 8.75
v 22.75 0 9.299
v 22 0 9.5
v 21.25 0 9.299
v 20.701 0 8.75
v 20.5 0 8
v 20.701 0 7.25
v 21.25 0 6.701
v 22 0 6.5
v 22.75 0 6.701
v 23.299 0 7.25
v 23.5 3 8
v 23.299 3 8.75
v 22.75 3 9.299
v 22 3 9.5
v 21.25 3 9.299
v 20.701 3 8.75
v 20.5 3 8
v 20.701 3 7.25
v 21.25 3 6.701
v 22 3 6.5
v 22.75 3 6.701
v 23.299 3 7.25
v 22 0 8
v 22 3 8
f 60 48 47
f 59 35 36
f 35 48 36
f 35 47 48
f 60 49 48
f 59 36 37
f 36 49 37
f 36 48 49
f 60 50 49
f 59 37 38
f 37 50 38
f 37 49 50
f 60 51 50
f 59 38 39
f 38 51 39
f 38 50 51
f 60 52 51
f 59 39 40
f 39 52 40
f 39 51 52
f 60 53 52
f 59 40 41
f 40 53 41
f 40 52 53
f 60 54 53
f 59 41 42
f 41 54 42
f 41 53 54
f 60 55 54
f 59 42 43
f 42 55 43
f 42 54 55
f 60 56 55
f 59 43 44
f 43 56 44
f 43 55 56
f 60 57 56
f 59 44 45
f 44 57 45
f 44 56 57
f 60 58 57
f 59 45 46
f 45 58 46
f 45 57 58
f 60 47 58
f 59 46 35
f 46 47 35
f 46 58 47
o Blocker_3
v 9.5 0 22
v 9.299 0 22.75
v 8.75 0 23.299
v 8 0 23.5
v 7.25 0 23.299
v 6.701 0 22.75
v 6.5 0 22
v 6.701 0 21.25
v 7.25 0 20.701
v 8 0 20.5
v 8.75 0 20.701
v 9.299 0 21.25
v 9.5 3 22
v 9.299 3 22.75
v 8.75 3 23.299
v 8 3 23.5
v 7.25 3 23.299
v 6.701 3 22.75
v 6.5 3 22
v 6.701 3 21.25
v 7.25 3 20.701
v 8 3 20.5
v 8.75 3 20.701
v 9.299 3 21.25
v 8 0 22
v 8 3 22
f 86 74 73
f 85 61 62
f 61 74 62
f 61 73 74
f 86 75 74
f 85 62 63
f 62 75 63
f 62 74 75
f 86 76 75
f 85 63 64
f 63 76 64
f 63 75 76
f 86 77 76
f 85 64 65
f 64 77 65
f 64 76 77
f 86 78 77
f 85 65 66
f 65 78 66
f 65 77 78
f 86 79 78
f 85 66 67
f 66 79 67
f 66 78 79
f 86 80 79
f 85 67 68
f 67 80 68
f 67 79 80
f 86 81 80
f 85 68 69
f 68 81 69
f 68 80 81
f 86 82 81
f 85 69 70
f 69 82 70
f 69 81 82
f 86 83 82
f 85 70 71
f 70 83 71
f 70 82 83
f 86 84 83
f 85 71 72
f 71 84 72
f 71 83 84
f 86 73 84
f 85 72 61
f 72 73 61
f 72 84 73
o Blocker_4
v 23.5 0 22
v 23.299 0 22.75
v 22.75 0 23.299
v 22 0 23.5
v 21.25 0 23.299
v 20.701 0 22.75
v 20.5 0 22
v 20.701 0 21.25
v 21.25 0 20.701
v 22 0 20.5
v 22.75 0 20.701
v 23.299 0 21.25
v 23.5 3 22
v 23.299 3 22.75
v 22.75 3 23.299
v 22 3 23.5
v 21.25 3 23.299
v 20.701 3 22.75
v 20.5 3 22
v 20.701 3 21.25
v 21.25 3 20.701
v 22 3 20.5
v 22.75 3 20.701
v 23.299 3 21.25
v 22 0 22
v 22 3 22
f 112 100 99
f 111 87 88
f 87 100 88
f 87 99 100
f 112 101 100
f 111 88 89
f 88 101 89
f 88 100 101
f 112 102 101
f 111 89 90
f 89 102 90
f 89 101 102
f 112 103 102
f 111 90 91
f 90 103 91
f 90 102 103
f 112 104 103
f 111 91 92
f 91 104 92
f 91 103 104
f 112 105 104
f 111 92 93
f 92 105 93
f 92 104 105
f 112 106 105
f 111 93 94
f 93 106 94
f 93 105 106
f 112 107 106
f 111 94 95
f 94 107 95
f 94 106 107
f 112 108 107
f 111 95 96
f 95 108 96
f 95 107 108
f 112 109 108
f 111 96 97
f 96 109 97
f 96 108 109
f 112 110 109
f 111 97 98
f 97 110 98
f 97 109 110
f 112 99 110
f 111 98 87
f 98 99 87
f 98 110 99
o Blocker_5
v 2 0 13
v 6 0 13
v 6 0 17
v 2 0 17
v 2 3 13
v 6 3 13
v 6 3 17
v 2 3 17
f 117 119 118
f 117 120 119
f 113 114 115
f 113 115 116
f 113 118 114
f 113 117 118
f 116 115 119
f 116 119 120
f 113 116 120
f 113 120 117
f 114 119 115
f 114 118 119
o Blocker_6
v 24 0 13
v 28 0 13
v 28 0 17
v 24 0 17
v 24 3 13
v 28 3 13
v 28 3 17
v 24 3 17
f 125 127 126
f 125 128 127
f 121 122 123
f 121 123 124
f 121 126 122
f 121 125 126
f 124 123 127
f 124 127 128
f 121 124 128
f 121 128 125
f 122 127 123
f 122 126 127
