# Avalon chunk: forest_rocks_01
# Generated by tools/Avalon.ChunkGen; regenerate it rather than editing it by hand
o Floor
v 0 -0.2 0
v 30 -0.2 0
v 30 -0.2 30
v 0 -0.2 30
v 0 0 0
v 30 0 0
v 30 0 30
v 0 0 30
f 5 7 6
f 5 8 7
f 1 2 3
f 1 3 4
f 1 6 2
f 1 5 6
f 4 3 7
f 4 7 8
f 1 4 8
f 1 8 5
f 2 7 3
f 2 6 7
o Blocker_1
v 4 0 22
v 10 0 22
v 10 0 27
v 4 0 27
v 4 3 22
v 10 3 22
v 10 3 27
v 4 3 27
f 13 15 14
f 13 16 15
f 9 10 11
f 9 11 12
f 9 14 10
f 9 13 14
f 12 11 15
f 12 15 16
f 9 12 16
f 9 16 13
f 10 15 11
f 10 14 15
o Blocker_2
v 20 0 21
v 27 0 21
v 27 0 26
v 20 0 26
v 20 3 21
v 27 3 21
v 27 3 26
v 20 3 26
f 21 23 22
f 21 24 23
f 17 18 19
f 17 19 20
f 17 22 18
f 17 21 22
f 20 19 23
f 20 23 24
f 17 20 24
f 17 24 21
f 18 23 19
f 18 22 23
o Blocker_3
v 12 0 3
v 17 0 3
v 17 0 7
v 12 0 7
v 12 3 3
v 17 3 3
v 17 3 7
v 12 3 7
f 29 31 30
f 29 32 31
f 25 26 27
f 25 27 28
f 25 30 26
f 25 29 30
f 28 27 31
f 28 31 32
f 25 28 32
f 25 32 29
f 26 31 27
f 26 30 31
