# Avalon chunk: forest_hollow_01
# Generated by tools/Avalon.ChunkGen; regenerate it rather than editing it by hand
o Floor
v 0 -0.2 0
v 30 -0.2 0
v 30 -0.2 30
v 0 -0.2 30
v 0 0 0
v 30 0 0
v 30 0 30
v 0 0 30
f 5 7 6
f 5 8 7
f 1 2 3
f 1 3 4
f 1 6 2
f 1 5 6
f 4 3 7
f 4 7 8
f 1 4 8
f 1 8 5
f 2 7 3
f 2 6 7
o Blocker_1
v 7 0 10
v 6.7321 0 11
v 6 0 11.7321
v 5 0 12
v 4 0 11.7321
v 3.2679 0 11
v 3 0 10
v 3.2679 0 9
v 4 0 8.2679
v 5 0 8
v 6 0 8.2679
v 6.7321 0 9
v 7 3 10
v 6.7321 3 11
v 6 3 11.7321
v 5 3 12
v 4 3 11.7321
v 3.2679 3 11
v 3 3 10
v 3.2679 3 9
v 4 3 8.2679
v 5 3 8
v 6 3 8.2679
v 6.7321 3 9
v 5 0 10
v 5 3 10
f 34 22 21
f 33 9 10
f 9 22 10
f 9 21 22
f 34 23 22
f 33 10 11
f 10 23 11
f 10 22 23
f 34 24 23
f 33 11 12
f 11 24 12
f 11 23 24
f 34 25 24
f 33 12 13
f 12 25 13
f 12 24 25
f 34 26 25
f 33 13 14
f 13 26 14
f 13 25 26
f 34 27 26
f 33 14 15
f 14 27 15
f 14 26 27
f 34 28 27
f 33 15 16
f 15 28 16
f 15 27 28
f 34 29 28
f 33 16 17
f 16 29 17
f 16 28 29
f 34 30 29
f 33 17 18
f 17 30 18
f 17 29 30
f 34 31 30
f 33 18 19
f 18 31 19
f 18 30 31
f 34 32 31
f 33 19 20
f 19 32 20
f 19 31 32
f 34 21 32
f 33 20 9
f 20 21 9
f 20 32 21
o Blocker_2
v 7 0 20
v 6.7321 0 21
v 6 0 21.732
v 5 0 22
v 4 0 21.732
v 3.2679 0 21
v 3 0 20
v 3.2679 0 19
v 4 0 18.268
v 5 0 18
v 6 0 18.268
v 6.7321 0 19
v 7 3 20
v 6.7321 3 21
v 6 3 21.732
v 5 3 22
v 4 3 21.732
v 3.2679 3 21
v 3 3 20
v 3.2679 3 19
v 4 3 18.268
v 5 3 18
v 6 3 18.268
v 6.7321 3 19
v 5 0 20
v 5 3 20
f 60 48 47
f 59 35 36
f 35 48 36
f 35 47 48
f 60 49 48
f 59 36 37
f 36 49 37
f 36 48 49
f 60 50 49
f 59 37 38
f 37 50 38
f 37 49 50
f 60 51 50
f 59 38 39
f 38 51 39
f 38 50 51
f 60 52 51
f 59 39 40
f 39 52 40
f 39 51 52
f 60 53 52
f 59 40 41
f 40 53 41
f 40 52 53
f 60 54 53
f 59 41 42
f 41 54 42
f 41 53 54
f 60 55 54
f 59 42 43
f 42 55 43
f 42 54 55
f 60 56 55
f 59 43 44
f 43 56 44
f 43 55 56
f 60 57 56
f 59 44 45
f 44 57 45
f 44 56 57
f 60 58 57
f 59 45 46
f 45 58 46
f 45 57 58
f 60 47 58
f 59 46 35
f 46 47 35
f 46 58 47
o Blocker_3
v 12 0 26
v 11.7321 0 27
v 11 0 27.732
v 10 0 28
v 9 0 27.732
v 8.2679 0 27
v 8 0 26
v 8.2679 0 25
v 9 0 24.268
v 10 0 24
v 11 0 24.268
v 11.7321 0 25
v 12 3 26
v 11.7321 3 27
v 11 3 27.732
v 10 3 28
v 9 3 27.732
v 8.2679 3 27
v 8 3 26
v 8.2679 3 25
v 9 3 24.268
v 10 3 24
v 11 3 24.268
v 11.7321 3 25
v 10 0 26
v 10 3 26
f 86 74 73
f 85 61 62
f 61 74 62
f 61 73 74
f 86 75 74
f 85 62 63
f 62 75 63
f 62 74 75
f 86 76 75
f 85 63 64
f 63 76 64
f 63 75 76
f 86 77 76
f 85 64 65
f 64 77 65
f 64 76 77
f 86 78 77
f 85 65 66
f 65 78 66
f 65 77 78
f 86 79 78
f 85 66 67
f 66 79 67
f 66 78 79
f 86 80 79
f 85 67 68
f 67 80 68
f 67 79 80
f 86 81 80
f 85 68 69
f 68 81 69
f 68 80 81
f 86 82 81
f 85 69 70
f 69 82 70
f 69 81 82
f 86 83 82
f 85 70 71
f 70 83 71
f 70 82 83
f 86 84 83
f 85 71 72
f 71 84 72
f 71 83 84
f 86 73 84
f 85 72 61
f 72 73 61
f 72 84 73
o Blocker_4
v 22 0 26
v 21.732 0 27
v 21 0 27.732
v 20 0 28
v 19 0 27.732
v 18.268 0 27
v 18 0 26
v 18.268 0 25
v 19 0 24.268
v 20 0 24
v 21 0 24.268
v 21.732 0 25
v 22 3 26
v 21.732 3 27
v 21 3 27.732
v 20 3 28
v 19 3 27.732
v 18.268 3 27
v 18 3 26
v 18.268 3 25
v 19 3 24.268
v 20 3 24
v 21 3 24.268
v 21.732 3 25
v 20 0 26
v 20 3 26
f 112 100 99
f 111 87 88
f 87 100 88
f 87 99 100
f 112 101 100
f 111 88 89
f 88 101 89
f 88 100 101
f 112 102 101
f 111 89 90
f 89 102 90
f 89 101 102
f 112 103 102
f 111 90 91
f 90 103 91
f 90 102 103
f 112 104 103
f 111 91 92
f 91 104 92
f 91 103 104
f 112 105 104
f 111 92 93
f 92 105 93
f 92 104 105
f 112 106 105
f 111 93 94
f 93 106 94
f 93 105 106
f 112 107 106
f 111 94 95
f 94 107 95
f 94 106 107
f 112 108 107
f 111 95 96
f 95 108 96
f 95 107 108
f 112 109 108
f 111 96 97
f 96 109 97
f 96 108 109
f 112 110 109
f 111 97 98
f 97 110 98
f 97 109 110
f 112 99 110
f 111 98 87
f 98 99 87
f 98 110 99
o Blocker_5
v 27 0 20
v 26.732 0 21
v 26 0 21.732
v 25 0 22
v 24 0 21.732
v 23.268 0 21
v 23 0 20
v 23.268 0 19
v 24 0 18.268
v 25 0 18
v 26 0 18.268
v 26.732 0 19
v 27 3 20
v 26.732 3 21
v 26 3 21.732
v 25 3 22
v 24 3 21.732
v 23.268 3 21
v 23 3 20
v 23.268 3 19
v 24 3 18.268
v 25 3 18
v 26 3 18.268
v 26.732 3 19
v 25 0 20
v 25 3 20
f 138 126 125
f 137 113 114
f 113 126 114
f 113 125 126
f 138 127 126
f 137 114 115
f 114 127 115
f 114 126 127
f 138 128 127
f 137 115 116
f 115 128 116
f 115 127 128
f 138 129 128
f 137 116 117
f 116 129 117
f 116 128 129
f 138 130 129
f 137 117 118
f 117 130 118
f 117 129 130
f 138 131 130
f 137 118 119
f 118 131 119
f 118 130 131
f 138 132 131
f 137 119 120
f 119 132 120
f 119 131 132
f 138 133 132
f 137 120 121
f 120 133 121
f 120 132 133
f 138 134 133
f 137 121 122
f 121 134 122
f 121 133 134
f 138 135 134
f 137 122 123
f 122 135 123
f 122 134 135
f 138 136 135
f 137 123 124
f 123 136 124
f 123 135 136
f 138 125 136
f 137 124 113
f 124 125 113
f 124 136 125
o Blocker_6
v 27 0 10
v 26.732 0 11
v 26 0 11.7321
v 25 0 12
v 24 0 11.7321
v 23.268 0 11
v 23 0 10
v 23.268 0 9
v 24 0 8.2679
v 25 0 8
v 26 0 8.2679
v 26.732 0 9
v 27 3 10
v 26.732 3 11
v 26 3 11.7321
v 25 3 12
v 24 3 11.7321
v 23.268 3 11
v 23 3 10
v 23.268 3 9
v 24 3 8.2679
v 25 3 8
v 26 3 8.2679
v 26.732 3 9
v 25 0 10
v 25 3 10
f 164 152 151
f 163 139 140
f 139 152 140
f 139 151 152
f 164 153 152
f 163 140 141
f 140 153 141
f 140 152 153
f 164 154 153
f 163 141 142
f 141 154 142
f 141 153 154
f 164 155 154
f 163 142 143
f 142 155 143
f 142 154 155
f 164 156 155
f 163 143 144
f 143 156 144
f 143 155 156
f 164 157 156
f 163 144 145
f 144 157 145
f 144 156 157
f 164 158 157
f 163 145 146
f 145 158 146
f 145 157 158
f 164 159 158
f 163 146 147
f 146 159 147
f 146 158 159
f 164 160 159
f 163 147 148
f 147 160 148
f 147 159 160
f 164 161 160
f 163 148 149
f 148 161 149
f 148 160 161
f 164 162 161
f 163 149 150
f 149 162 150
f 149 161 162
f 164 151 162
f 163 150 139
f 150 151 139
f 150 162 151
