# Avalon chunk: town_ne_01
# Generated by tools/Avalon.ChunkGen (town); regenerate it rather than editing it by hand
o Floor
v 0 -0.05 0
v 30 -0.05 0
v 30 -0.05 30
v 0 -0.05 30
v 0 0.05 0
v 30 0.05 0
v 30 0.05 30
v 0 0.05 30
f 5 7 6
f 5 8 7
f 1 2 3
f 1 3 4
f 1 6 2
f 1 5 6
f 4 3 7
f 4 7 8
f 1 4 8
f 1 8 5
f 2 7 3
f 2 6 7
o Wall_N
usemtl stone
v 0 0 29.75
v 30 0 29.75
v 30 0 30.25
v 0 0 30.25
v 0 2 29.75
v 30 2 29.75
v 30 2 30.25
v 0 2 30.25
f 13 15 14
f 13 16 15
f 9 10 11
f 9 11 12
f 9 14 10
f 9 13 14
f 12 11 15
f 12 15 16
f 9 12 16
f 9 16 13
f 10 15 11
f 10 14 15
o Wall_E
usemtl stone
v 29.75 0 0
v 30.25 0 0
v 30.25 0 30
v 29.75 0 30
v 29.75 2 0
v 30.25 2 0
v 30.25 2 30
v 29.75 2 30
f 21 23 22
f 21 24 23
f 17 18 19
f 17 19 20
f 17 22 18
f 17 21 22
f 20 19 23
f 20 23 24
f 17 20 24
f 17 24 21
f 18 23 19
f 18 22 23
o Wall_S_L
usemtl stone
v 0 0 -0.25
v 12 0 -0.25
v 12 0 0.25
v 0 0 0.25
v 0 2 -0.25
v 12 2 -0.25
v 12 2 0.25
v 0 2 0.25
f 29 31 30
f 29 32 31
f 25 26 27
f 25 27 28
f 25 30 26
f 25 29 30
f 28 27 31
f 28 31 32
f 25 28 32
f 25 32 29
f 26 31 27
f 26 30 31
o Wall_S_R
usemtl stone
v 18 0 -0.25
v 30 0 -0.25
v 30 0 0.25
v 18 0 0.25
v 18 2 -0.25
v 30 2 -0.25
v 30 2 0.25
v 18 2 0.25
f 37 39 38
f 37 40 39
f 33 34 35
f 33 35 36
f 33 38 34
f 33 37 38
f 36 35 39
f 36 39 40
f 33 36 40
f 33 40 37
f 34 39 35
f 34 38 39
o Wall_W_L
usemtl stone
v -0.25 0 0
v 0.25 0 0
v 0.25 0 12
v -0.25 0 12
v -0.25 2 0
v 0.25 2 0
v 0.25 2 12
v -0.25 2 12
f 45 47 46
f 45 48 47
f 41 42 43
f 41 43 44
f 41 46 42
f 41 45 46
f 44 43 47
f 44 47 48
f 41 44 48
f 41 48 45
f 42 47 43
f 42 46 47
o Wall_W_R
usemtl stone
v -0.25 0 18
v 0.25 0 18
v 0.25 0 30
v -0.25 0 30
v -0.25 2 18
v 0.25 2 18
v 0.25 2 30
v -0.25 2 30
f 53 55 54
f 53 56 55
f 49 50 51
f 49 51 52
f 49 54 50
f 49 53 54
f 52 51 55
f 52 55 56
f 49 52 56
f 49 56 53
f 50 55 51
f 50 54 55
o Bank_body
usemtl stone
v 2.8 0 20.5
v 10.8 0 20.5
v 10.8 0 26.5
v 2.8 0 26.5
v 2.8 5 20.5
v 10.8 5 20.5
v 10.8 5 26.5
v 2.8 5 26.5
f 61 63 62
f 61 64 63
f 57 58 59
f 57 59 60
f 57 62 58
f 57 61 62
f 60 59 63
f 60 63 64
f 57 60 64
f 57 64 61
f 58 63 59
f 58 62 63
o Bank_roof
usemtl roof
v 2.5 5 20.2
v 11.1 5 20.2
v 11.1 5 26.8
v 2.5 5 26.8
v 2.5 6.5 23.5
v 11.1 6.5 23.5
f 65 66 67
f 65 67 68
f 65 70 66
f 65 69 70
f 68 67 70
f 68 70 69
f 65 68 69
f 66 70 67
o Bank_lower_step
usemtl stone
v 4.8 0 19
v 8.8 0 19
v 8.8 0 20.5
v 4.8 0 20.5
v 4.8 0.15 19
v 8.8 0.15 19
v 8.8 0.15 20.5
v 4.8 0.15 20.5
f 75 77 76
f 75 78 77
f 71 72 73
f 71 73 74
f 71 76 72
f 71 75 76
f 74 73 77
f 74 77 78
f 71 74 78
f 71 78 75
f 72 77 73
f 72 76 77
o Bank_upper_step
usemtl stone
v 4.8 0 19.75
v 8.8 0 19.75
v 8.8 0 20.5
v 4.8 0 20.5
v 4.8 0.3 19.75
v 8.8 0.3 19.75
v 8.8 0.3 20.5
v 4.8 0.3 20.5
f 83 85 84
f 83 86 85
f 79 80 81
f 79 81 82
f 79 84 80
f 79 83 84
f 82 81 85
f 82 85 86
f 79 82 86
f 79 86 83
f 80 85 81
f 80 84 85
o Bank_pilaster_w
usemtl stone
v 4.1 0 19.9
v 4.7 0 19.9
v 4.7 0 20.5
v 4.1 0 20.5
v 4.1 5 19.9
v 4.7 5 19.9
v 4.7 5 20.5
v 4.1 5 20.5
f 91 93 92
f 91 94 93
f 87 88 89
f 87 89 90
f 87 92 88
f 87 91 92
f 90 89 93
f 90 93 94
f 87 90 94
f 87 94 91
f 88 93 89
f 88 92 93
o Bank_pilaster_e
usemtl stone
v 8.9 0 19.9
v 9.5 0 19.9
v 9.5 0 20.5
v 8.9 0 20.5
v 8.9 5 19.9
v 9.5 5 19.9
v 9.5 5 20.5
v 8.9 5 20.5
f 99 101 100
f 99 102 101
f 95 96 97
f 95 97 98
f 95 100 96
f 95 99 100
f 98 97 101
f 98 101 102
f 95 98 102
f 95 102 99
f 96 101 97
f 96 100 101
o Inn_body
usemtl plaster
v 14 0 21
v 26 0 21
v 26 0 27.25
v 14 0 27.25
v 14 7 21
v 26 7 21
v 26 7 27.25
v 14 7 27.25
f 107 109 108
f 107 110 109
f 103 104 105
f 103 105 106
f 103 108 104
f 103 107 108
f 106 105 109
f 106 109 110
f 103 106 110
f 103 110 107
f 104 109 105
f 104 108 109
o Inn_roof
usemtl roof
v 13.7 7 20.7
v 26.3 7 20.7
v 26.3 7 27.55
v 13.7 7 27.55
v 13.7 9.5 24.125
v 26.3 9.5 24.125
f 111 112 113
f 111 113 114
f 111 116 112
f 111 115 116
f 114 113 116
f 114 116 115
f 111 114 115
f 112 116 113
o Inn_chimney
usemtl stone
v 24.45 0 24
v 24.3897 0 24.225
v 24.225 0 24.3897
v 24 0 24.45
v 23.775 0 24.3897
v 23.6103 0 24.225
v 23.55 0 24
v 23.6103 0 23.775
v 23.775 0 23.6103
v 24 0 23.55
v 24.225 0 23.6103
v 24.3897 0 23.775
v 24.45 10.5 24
v 24.3897 10.5 24.225
v 24.225 10.5 24.3897
v 24 10.5 24.45
v 23.775 10.5 24.3897
v 23.6103 10.5 24.225
v 23.55 10.5 24
v 23.6103 10.5 23.775
v 23.775 10.5 23.6103
v 24 10.5 23.55
v 24.225 10.5 23.6103
v 24.3897 10.5 23.775
v 24 0 24
v 24 10.5 24
f 142 130 129
f 141 117 118
f 117 130 118
f 117 129 130
f 142 131 130
f 141 118 119
f 118 131 119
f 118 130 131
f 142 132 131
f 141 119 120
f 119 132 120
f 119 131 132
f 142 133 132
f 141 120 121
f 120 133 121
f 120 132 133
f 142 134 133
f 141 121 122
f 121 134 122
f 121 133 134
f 142 135 134
f 141 122 123
f 122 135 123
f 122 134 135
f 142 136 135
f 141 123 124
f 123 136 124
f 123 135 136
f 142 137 136
f 141 124 125
f 124 137 125
f 124 136 137
f 142 138 137
f 141 125 126
f 125 138 126
f 125 137 138
f 142 139 138
f 141 126 127
f 126 139 127
f 126 138 139
f 142 140 139
f 141 127 128
f 127 140 128
f 127 139 140
f 142 129 140
f 141 128 117
f 128 129 117
f 128 140 129
o Inn_porch_deck
usemtl wood
v 16 0 18.5
v 24 0 18.5
v 24 0 21
v 16 0 21
v 16 0.2 18.5
v 24 0.2 18.5
v 24 0.2 21
v 16 0.2 21
f 147 149 148
f 147 150 149
f 143 144 145
f 143 145 146
f 143 148 144
f 143 147 148
f 146 145 149
f 146 149 150
f 143 146 150
f 143 150 147
f 144 149 145
f 144 148 149
o Inn_porch_step
usemtl wood
v 16 0 18
v 24 0 18
v 24 0 18.5
v 16 0 18.5
v 16 0.1 18
v 24 0.1 18
v 24 0.1 18.5
v 16 0.1 18.5
f 155 157 156
f 155 158 157
f 151 152 153
f 151 153 154
f 151 156 152
f 151 155 156
f 154 153 157
f 154 157 158
f 151 154 158
f 151 158 155
f 152 157 153
f 152 156 157
o Inn_post_1
usemtl wood
v 16.42 0 18.8
v 16.4039 0 18.86
v 16.36 0 18.9039
v 16.3 0 18.92
v 16.24 0 18.9039
v 16.1961 0 18.86
v 16.18 0 18.8
v 16.1961 0 18.74
v 16.24 0 18.6961
v 16.3 0 18.68
v 16.36 0 18.6961
v 16.4039 0 18.74
v 16.42 3.2 18.8
v 16.4039 3.2 18.86
v 16.36 3.2 18.9039
v 16.3 3.2 18.92
v 16.24 3.2 18.9039
v 16.1961 3.2 18.86
v 16.18 3.2 18.8
v 16.1961 3.2 18.74
v 16.24 3.2 18.6961
v 16.3 3.2 18.68
v 16.36 3.2 18.6961
v 16.4039 3.2 18.74
v 16.3 0 18.8
v 16.3 3.2 18.8
f 184 172 171
f 183 159 160
f 159 172 160
f 159 171 172
f 184 173 172
f 183 160 161
f 160 173 161
f 160 172 173
f 184 174 173
f 183 161 162
f 161 174 162
f 161 173 174
f 184 175 174
f 183 162 163
f 162 175 163
f 162 174 175
f 184 176 175
f 183 163 164
f 163 176 164
f 163 175 176
f 184 177 176
f 183 164 165
f 164 177 165
f 164 176 177
f 184 178 177
f 183 165 166
f 165 178 166
f 165 177 178
f 184 179 178
f 183 166 167
f 166 179 167
f 166 178 179
f 184 180 179
f 183 167 168
f 167 180 168
f 167 179 180
f 184 181 180
f 183 168 169
f 168 181 169
f 168 180 181
f 184 182 181
f 183 169 170
f 169 182 170
f 169 181 182
f 184 171 182
f 183 170 159
f 170 171 159
f 170 182 171
o Inn_post_2
usemtl wood
v 18.92 0 18.8
v 18.9039 0 18.86
v 18.86 0 18.9039
v 18.8 0 18.92
v 18.74 0 18.9039
v 18.6961 0 18.86
v 18.68 0 18.8
v 18.6961 0 18.74
v 18.74 0 18.6961
v 18.8 0 18.68
v 18.86 0 18.6961
v 18.9039 0 18.74
v 18.92 3.2 18.8
v 18.9039 3.2 18.86
v 18.86 3.2 18.9039
v 18.8 3.2 18.92
v 18.74 3.2 18.9039
v 18.6961 3.2 18.86
v 18.68 3.2 18.8
v 18.6961 3.2 18.74
v 18.74 3.2 18.6961
v 18.8 3.2 18.68
v 18.86 3.2 18.6961
v 18.9039 3.2 18.74
v 18.8 0 18.8
v 18.8 3.2 18.8
f 210 198 197
f 209 185 186
f 185 198 186
f 185 197 198
f 210 199 198
f 209 186 187
f 186 199 187
f 186 198 199
f 210 200 199
f 209 187 188
f 187 200 188
f 187 199 200
f 210 201 200
f 209 188 189
f 188 201 189
f 188 200 201
f 210 202 201
f 209 189 190
f 189 202 190
f 189 201 202
f 210 203 202
f 209 190 191
f 190 203 191
f 190 202 203
f 210 204 203
f 209 191 192
f 191 204 192
f 191 203 204
f 210 205 204
f 209 192 193
f 192 205 193
f 192 204 205
f 210 206 205
f 209 193 194
f 193 206 194
f 193 205 206
f 210 207 206
f 209 194 195
f 194 207 195
f 194 206 207
f 210 208 207
f 209 195 196
f 195 208 196
f 195 207 208
f 210 197 208
f 209 196 185
f 196 197 185
f 196 208 197
o Inn_post_3
usemtl wood
v 21.32 0 18.8
v 21.3039 0 18.86
v 21.26 0 18.9039
v 21.2 0 18.92
v 21.14 0 18.9039
v 21.0961 0 18.86
v 21.08 0 18.8
v 21.0961 0 18.74
v 21.14 0 18.6961
v 21.2 0 18.68
v 21.26 0 18.6961
v 21.3039 0 18.74
v 21.32 3.2 18.8
v 21.3039 3.2 18.86
v 21.26 3.2 18.9039
v 21.2 3.2 18.92
v 21.14 3.2 18.9039
v 21.0961 3.2 18.86
v 21.08 3.2 18.8
v 21.0961 3.2 18.74
v 21.14 3.2 18.6961
v 21.2 3.2 18.68
v 21.26 3.2 18.6961
v 21.3039 3.2 18.74
v 21.2 0 18.8
v 21.2 3.2 18.8
f 236 224 223
f 235 211 212
f 211 224 212
f 211 223 224
f 236 225 224
f 235 212 213
f 212 225 213
f 212 224 225
f 236 226 225
f 235 213 214
f 213 226 214
f 213 225 226
f 236 227 226
f 235 214 215
f 214 227 215
f 214 226 227
f 236 228 227
f 235 215 216
f 215 228 216
f 215 227 228
f 236 229 228
f 235 216 217
f 216 229 217
f 216 228 229
f 236 230 229
f 235 217 218
f 217 230 218
f 217 229 230
f 236 231 230
f 235 218 219
f 218 231 219
f 218 230 231
f 236 232 231
f 235 219 220
f 219 232 220
f 219 231 232
f 236 233 232
f 235 220 221
f 220 233 221
f 220 232 233
f 236 234 233
f 235 221 222
f 221 234 222
f 221 233 234
f 236 223 234
f 235 222 211
f 222 223 211
f 222 234 223
o Inn_post_4
usemtl wood
v 23.82 0 18.8
v 23.8039 0 18.86
v 23.76 0 18.9039
v 23.7 0 18.92
v 23.64 0 18.9039
v 23.5961 0 18.86
v 23.58 0 18.8
v 23.5961 0 18.74
v 23.64 0 18.6961
v 23.7 0 18.68
v 23.76 0 18.6961
v 23.8039 0 18.74
v 23.82 3.2 18.8
v 23.8039 3.2 18.86
v 23.76 3.2 18.9039
v 23.7 3.2 18.92
v 23.64 3.2 18.9039
v 23.5961 3.2 18.86
v 23.58 3.2 18.8
v 23.5961 3.2 18.74
v 23.64 3.2 18.6961
v 23.7 3.2 18.68
v 23.76 3.2 18.6961
v 23.8039 3.2 18.74
v 23.7 0 18.8
v 23.7 3.2 18.8
f 262 250 249
f 261 237 238
f 237 250 238
f 237 249 250
f 262 251 250
f 261 238 239
f 238 251 239
f 238 250 251
f 262 252 251
f 261 239 240
f 239 252 240
f 239 251 252
f 262 253 252
f 261 240 241
f 240 253 241
f 240 252 253
f 262 254 253
f 261 241 242
f 241 254 242
f 241 253 254
f 262 255 254
f 261 242 243
f 242 255 243
f 242 254 255
f 262 256 255
f 261 243 244
f 243 256 244
f 243 255 256
f 262 257 256
f 261 244 245
f 244 257 245
f 244 256 257
f 262 258 257
f 261 245 246
f 245 258 246
f 245 257 258
f 262 259 258
f 261 246 247
f 246 259 247
f 246 258 259
f 262 260 259
f 261 247 248
f 247 260 248
f 247 259 260
f 262 249 260
f 261 248 237
f 248 249 237
f 248 260 249
o Inn_porch_roof
usemtl roof
v 15.8 3.2 18.2
v 24.2 3.2 18.2
v 24.2 3.2 21.1
v 15.8 3.2 21.1
v 15.8 3.5 18.2
v 24.2 3.5 18.2
v 24.2 3.5 21.1
v 15.8 3.5 21.1
f 267 269 268
f 267 270 269
f 263 264 265
f 263 265 266
f 263 268 264
f 263 267 268
f 266 265 269
f 266 269 270
f 263 266 270
f 263 270 267
f 264 269 265
f 264 268 269
o Benches_bench_inn
usemtl wood
v 25.3 0 19.2
v 27.1 0 19.2
v 27.1 0 19.7
v 25.3 0 19.7
v 25.3 1.05 19.2
v 27.1 1.05 19.2
v 27.1 1.05 19.7
v 25.3 1.05 19.7
f 275 277 276
f 275 278 277
f 271 272 273
f 271 273 274
f 271 276 272
f 271 275 276
f 274 273 277
f 274 277 278
f 271 274 278
f 271 278 275
f 272 277 273
f 272 276 277
o BarrelInn_barrel
usemtl wood
v 27.4 0 21.5
v 27.3464 0 21.7
v 27.2 0 21.8464
v 27 0 21.9
v 26.8 0 21.8464
v 26.6536 0 21.7
v 26.6 0 21.5
v 26.6536 0 21.3
v 26.8 0 21.1536
v 27 0 21.1
v 27.2 0 21.1536
v 27.3464 0 21.3
v 27.4 1.05 21.5
v 27.3464 1.05 21.7
v 27.2 1.05 21.8464
v 27 1.05 21.9
v 26.8 1.05 21.8464
v 26.6536 1.05 21.7
v 26.6 1.05 21.5
v 26.6536 1.05 21.3
v 26.8 1.05 21.1536
v 27 1.05 21.1
v 27.2 1.05 21.1536
v 27.3464 1.05 21.3
v 27 0 21.5
v 27 1.05 21.5
f 304 292 291
f 303 279 280
f 279 292 280
f 279 291 292
f 304 293 292
f 303 280 281
f 280 293 281
f 280 292 293
f 304 294 293
f 303 281 282
f 281 294 282
f 281 293 294
f 304 295 294
f 303 282 283
f 282 295 283
f 282 294 295
f 304 296 295
f 303 283 284
f 283 296 284
f 283 295 296
f 304 297 296
f 303 284 285
f 284 297 285
f 284 296 297
f 304 298 297
f 303 285 286
f 285 298 286
f 285 297 298
f 304 299 298
f 303 286 287
f 286 299 287
f 286 298 299
f 304 300 299
f 303 287 288
f 287 300 288
f 287 299 300
f 304 301 300
f 303 288 289
f 288 301 289
f 288 300 301
f 304 302 301
f 303 289 290
f 289 302 290
f 289 301 302
f 304 291 302
f 303 290 279
f 290 291 279
f 290 302 291
o HouseA_body
usemtl plaster
v 3.5 0 3
v 9.5 0 3
v 9.5 0 9
v 3.5 0 9
v 3.5 3.2 3
v 9.5 3.2 3
v 9.5 3.2 9
v 3.5 3.2 9
f 309 311 310
f 309 312 311
f 305 306 307
f 305 307 308
f 305 310 306
f 305 309 310
f 308 307 311
f 308 311 312
f 305 308 312
f 305 312 309
f 306 311 307
f 306 310 311
o HouseA_roof
usemtl roof
v 3.2 3.2 2.7
v 9.8 3.2 2.7
v 9.8 3.2 9.3
v 3.2 3.2 9.3
v 3.2 5 6
v 9.8 5 6
f 313 314 315
f 313 315 316
f 313 318 314
f 313 317 318
f 316 315 318
f 316 318 317
f 313 316 317
f 314 318 315
o HouseA_chimney
usemtl stone
v 8.65 0 4.5
v 8.6031 0 4.675
v 8.475 0 4.8031
v 8.3 0 4.85
v 8.125 0 4.8031
v 7.9969 0 4.675
v 7.95 0 4.5
v 7.9969 0 4.325
v 8.125 0 4.1969
v 8.3 0 4.15
v 8.475 0 4.1969
v 8.6031 0 4.325
v 8.65 5.6 4.5
v 8.6031 5.6 4.675
v 8.475 5.6 4.8031
v 8.3 5.6 4.85
v 8.125 5.6 4.8031
v 7.9969 5.6 4.675
v 7.95 5.6 4.5
v 7.9969 5.6 4.325
v 8.125 5.6 4.1969
v 8.3 5.6 4.15
v 8.475 5.6 4.1969
v 8.6031 5.6 4.325
v 8.3 0 4.5
v 8.3 5.6 4.5
f 344 332 331
f 343 319 320
f 319 332 320
f 319 331 332
f 344 333 332
f 343 320 321
f 320 333 321
f 320 332 333
f 344 334 333
f 343 321 322
f 321 334 322
f 321 333 334
f 344 335 334
f 343 322 323
f 322 335 323
f 322 334 335
f 344 336 335
f 343 323 324
f 323 336 324
f 323 335 336
f 344 337 336
f 343 324 325
f 324 337 325
f 324 336 337
f 344 338 337
f 343 325 326
f 325 338 326
f 325 337 338
f 344 339 338
f 343 326 327
f 326 339 327
f 326 338 339
f 344 340 339
f 343 327 328
f 327 340 328
f 327 339 340
f 344 341 340
f 343 328 329
f 328 341 329
f 328 340 341
f 344 342 341
f 343 329 330
f 329 342 330
f 329 341 342
f 344 331 342
f 343 330 319
f 330 331 319
f 330 342 331
o HouseB_body
usemtl plaster
v 21 0 3
v 27 0 3
v 27 0 9
v 21 0 9
v 21 3.2 3
v 27 3.2 3
v 27 3.2 9
v 21 3.2 9
f 349 351 350
f 349 352 351
f 345 346 347
f 345 347 348
f 345 350 346
f 345 349 350
f 348 347 351
f 348 351 352
f 345 348 352
f 345 352 349
f 346 351 347
f 346 350 351
o HouseB_roof
usemtl roof
v 20.7 3.2 2.7
v 27.3 3.2 2.7
v 27.3 3.2 9.3
v 20.7 3.2 9.3
v 24 5 2.7
v 24 5 9.3
f 353 354 355
f 353 355 356
f 353 356 358
f 353 358 357
f 354 358 355
f 354 357 358
f 353 357 354
f 356 355 358
o HouseB_chimney
usemtl stone
v 22.55 0 4.5
v 22.5031 0 4.675
v 22.375 0 4.8031
v 22.2 0 4.85
v 22.025 0 4.8031
v 21.8969 0 4.675
v 21.85 0 4.5
v 21.8969 0 4.325
v 22.025 0 4.1969
v 22.2 0 4.15
v 22.375 0 4.1969
v 22.5031 0 4.325
v 22.55 5.6 4.5
v 22.5031 5.6 4.675
v 22.375 5.6 4.8031
v 22.2 5.6 4.85
v 22.025 5.6 4.8031
v 21.8969 5.6 4.675
v 21.85 5.6 4.5
v 21.8969 5.6 4.325
v 22.025 5.6 4.1969
v 22.2 5.6 4.15
v 22.375 5.6 4.1969
v 22.5031 5.6 4.325
v 22.2 0 4.5
v 22.2 5.6 4.5
f 384 372 371
f 383 359 360
f 359 372 360
f 359 371 372
f 384 373 372
f 383 360 361
f 360 373 361
f 360 372 373
f 384 374 373
f 383 361 362
f 361 374 362
f 361 373 374
f 384 375 374
f 383 362 363
f 362 375 363
f 362 374 375
f 384 376 375
f 383 363 364
f 363 376 364
f 363 375 376
f 384 377 376
f 383 364 365
f 364 377 365
f 364 376 377
f 384 378 377
f 383 365 366
f 365 378 366
f 365 377 378
f 384 379 378
f 383 366 367
f 366 379 367
f 366 378 379
f 384 380 379
f 383 367 368
f 367 380 368
f 367 379 380
f 384 381 380
f 383 368 369
f 368 381 369
f 368 380 381
f 384 382 381
f 383 369 370
f 369 382 370
f 369 381 382
f 384 371 382
f 383 370 359
f 370 371 359
f 370 382 371
o CratesHouseA_crate_1
usemtl wood
v 4 0 10
v 5 0 10
v 5 0 11
v 4 0 11
v 4 1.05 10
v 5 1.05 10
v 5 1.05 11
v 4 1.05 11
f 389 391 390
f 389 392 391
f 385 386 387
f 385 387 388
f 385 390 386
f 385 389 390
f 388 387 391
f 388 391 392
f 385 388 392
f 385 392 389
f 386 391 387
f 386 390 391
o CratesHouseA_crate_2
usemtl wood
v 5 0 10
v 6 0 10
v 6 0 11
v 5 0 11
v 5 1.05 10
v 6 1.05 10
v 6 1.05 11
v 5 1.05 11
f 397 399 398
f 397 400 399
f 393 394 395
f 393 395 396
f 393 398 394
f 393 397 398
f 396 395 399
f 396 399 400
f 393 396 400
f 393 400 397
f 394 399 395
f 394 398 399
o BarrelsHouseB_barrel_1
usemtl wood
v 20.4 0 6.5
v 20.3464 0 6.7
v 20.2 0 6.8464
v 20 0 6.9
v 19.8 0 6.8464
v 19.6536 0 6.7
v 19.6 0 6.5
v 19.6536 0 6.3
v 19.8 0 6.1536
v 20 0 6.1
v 20.2 0 6.1536
v 20.3464 0 6.3
v 20.4 1.05 6.5
v 20.3464 1.05 6.7
v 20.2 1.05 6.8464
v 20 1.05 6.9
v 19.8 1.05 6.8464
v 19.6536 1.05 6.7
v 19.6 1.05 6.5
v 19.6536 1.05 6.3
v 19.8 1.05 6.1536
v 20 1.05 6.1
v 20.2 1.05 6.1536
v 20.3464 1.05 6.3
v 20 0 6.5
v 20 1.05 6.5
f 426 414 413
f 425 401 402
f 401 414 402
f 401 413 414
f 426 415 414
f 425 402 403
f 402 415 403
f 402 414 415
f 426 416 415
f 425 403 404
f 403 416 404
f 403 415 416
f 426 417 416
f 425 404 405
f 404 417 405
f 404 416 417
f 426 418 417
f 425 405 406
f 405 418 406
f 405 417 418
f 426 419 418
f 425 406 407
f 406 419 407
f 406 418 419
f 426 420 419
f 425 407 408
f 407 420 408
f 407 419 420
f 426 421 420
f 425 408 409
f 408 421 409
f 408 420 421
f 426 422 421
f 425 409 410
f 409 422 410
f 409 421 422
f 426 423 422
f 425 410 411
f 410 423 411
f 410 422 423
f 426 424 423
f 425 411 412
f 411 424 412
f 411 423 424
f 426 413 424
f 425 412 401
f 412 413 401
f 412 424 413
o BarrelsHouseB_barrel_2
usemtl wood
v 20.4 0 7.4
v 20.3464 0 7.6
v 20.2 0 7.7464
v 20 0 7.8
v 19.8 0 7.7464
v 19.6536 0 7.6
v 19.6 0 7.4
v 19.6536 0 7.2
v 19.8 0 7.0536
v 20 0 7
v 20.2 0 7.0536
v 20.3464 0 7.2
v 20.4 1.05 7.4
v 20.3464 1.05 7.6
v 20.2 1.05 7.7464
v 20 1.05 7.8
v 19.8 1.05 7.7464
v 19.6536 1.05 7.6
v 19.6 1.05 7.4
v 19.6536 1.05 7.2
v 19.8 1.05 7.0536
v 20 1.05 7
v 20.2 1.05 7.0536
v 20.3464 1.05 7.2
v 20 0 7.4
v 20 1.05 7.4
f 452 440 439
f 451 427 428
f 427 440 428
f 427 439 440
f 452 441 440
f 451 428 429
f 428 441 429
f 428 440 441
f 452 442 441
f 451 429 430
f 429 442 430
f 429 441 442
f 452 443 442
f 451 430 431
f 430 443 431
f 430 442 443
f 452 444 443
f 451 431 432
f 431 444 432
f 431 443 444
f 452 445 444
f 451 432 433
f 432 445 433
f 432 444 445
f 452 446 445
f 451 433 434
f 433 446 434
f 433 445 446
f 452 447 446
f 451 434 435
f 434 447 435
f 434 446 447
f 452 448 447
f 451 435 436
f 435 448 436
f 435 447 448
f 452 449 448
f 451 436 437
f 436 449 437
f 436 448 449
f 452 450 449
f 451 437 438
f 437 450 438
f 437 449 450
f 452 439 450
f 451 438 427
f 438 439 427
f 438 450 439
o Well_ring
usemtl stone
v 16 0 14
v 15.866 0 14.5
v 15.5 0 14.866
v 15 0 15
v 14.5 0 14.866
v 14.134 0 14.5
v 14 0 14
v 14.134 0 13.5
v 14.5 0 13.134
v 15 0 13
v 15.5 0 13.134
v 15.866 0 13.5
v 16 1.05 14
v 15.866 1.05 14.5
v 15.5 1.05 14.866
v 15 1.05 15
v 14.5 1.05 14.866
v 14.134 1.05 14.5
v 14 1.05 14
v 14.134 1.05 13.5
v 14.5 1.05 13.134
v 15 1.05 13
v 15.5 1.05 13.134
v 15.866 1.05 13.5
v 15 0 14
v 15 1.05 14
f 478 466 465
f 477 453 454
f 453 466 454
f 453 465 466
f 478 467 466
f 477 454 455
f 454 467 455
f 454 466 467
f 478 468 467
f 477 455 456
f 455 468 456
f 455 467 468
f 478 469 468
f 477 456 457
f 456 469 457
f 456 468 469
f 478 470 469
f 477 457 458
f 457 470 458
f 457 469 470
f 478 471 470
f 477 458 459
f 458 471 459
f 458 470 471
f 478 472 471
f 477 459 460
f 459 472 460
f 459 471 472
f 478 473 472
f 477 460 461
f 460 473 461
f 460 472 473
f 478 474 473
f 477 461 462
f 461 474 462
f 461 473 474
f 478 475 474
f 477 462 463
f 462 475 463
f 462 474 475
f 478 476 475
f 477 463 464
f 463 476 464
f 463 475 476
f 478 465 476
f 477 464 453
f 464 465 453
f 464 476 465
o Well_post_1
usemtl wood
v 15.1 0 12.75
v 15.0866 0 12.8
v 15.05 0 12.8366
v 15 0 12.85
v 14.95 0 12.8366
v 14.9134 0 12.8
v 14.9 0 12.75
v 14.9134 0 12.7
v 14.95 0 12.6634
v 15 0 12.65
v 15.05 0 12.6634
v 15.0866 0 12.7
v 15.1 2.5 12.75
v 15.0866 2.5 12.8
v 15.05 2.5 12.8366
v 15 2.5 12.85
v 14.95 2.5 12.8366
v 14.9134 2.5 12.8
v 14.9 2.5 12.75
v 14.9134 2.5 12.7
v 14.95 2.5 12.6634
v 15 2.5 12.65
v 15.05 2.5 12.6634
v 15.0866 2.5 12.7
v 15 0 12.75
v 15 2.5 12.75
f 504 492 491
f 503 479 480
f 479 492 480
f 479 491 492
f 504 493 492
f 503 480 481
f 480 493 481
f 480 492 493
f 504 494 493
f 503 481 482
f 481 494 482
f 481 493 494
f 504 495 494
f 503 482 483
f 482 495 483
f 482 494 495
f 504 496 495
f 503 483 484
f 483 496 484
f 483 495 496
f 504 497 496
f 503 484 485
f 484 497 485
f 484 496 497
f 504 498 497
f 503 485 486
f 485 498 486
f 485 497 498
f 504 499 498
f 503 486 487
f 486 499 487
f 486 498 499
f 504 500 499
f 503 487 488
f 487 500 488
f 487 499 500
f 504 501 500
f 503 488 489
f 488 501 489
f 488 500 501
f 504 502 501
f 503 489 490
f 489 502 490
f 489 501 502
f 504 491 502
f 503 490 479
f 490 491 479
f 490 502 491
o Well_post_2
usemtl wood
v 15.1 0 15.25
v 15.0866 0 15.3
v 15.05 0 15.3366
v 15 0 15.35
v 14.95 0 15.3366
v 14.9134 0 15.3
v 14.9 0 15.25
v 14.9134 0 15.2
v 14.95 0 15.1634
v 15 0 15.15
v 15.05 0 15.1634
v 15.0866 0 15.2
v 15.1 2.5 15.25
v 15.0866 2.5 15.3
v 15.05 2.5 15.3366
v 15 2.5 15.35
v 14.95 2.5 15.3366
v 14.9134 2.5 15.3
v 14.9 2.5 15.25
v 14.9134 2.5 15.2
v 14.95 2.5 15.1634
v 15 2.5 15.15
v 15.05 2.5 15.1634
v 15.0866 2.5 15.2
v 15 0 15.25
v 15 2.5 15.25
f 530 518 517
f 529 505 506
f 505 518 506
f 505 517 518
f 530 519 518
f 529 506 507
f 506 519 507
f 506 518 519
f 530 520 519
f 529 507 508
f 507 520 508
f 507 519 520
f 530 521 520
f 529 508 509
f 508 521 509
f 508 520 521
f 530 522 521
f 529 509 510
f 509 522 510
f 509 521 522
f 530 523 522
f 529 510 511
f 510 523 511
f 510 522 523
f 530 524 523
f 529 511 512
f 511 524 512
f 511 523 524
f 530 525 524
f 529 512 513
f 512 525 513
f 512 524 525
f 530 526 525
f 529 513 514
f 513 526 514
f 513 525 526
f 530 527 526
f 529 514 515
f 514 527 515
f 514 526 527
f 530 528 527
f 529 515 516
f 515 528 516
f 515 527 528
f 530 517 528
f 529 516 505
f 516 517 505
f 516 528 517
o Well_roof
usemtl roof
v 14.2 2.5 12.4
v 15.8 2.5 12.4
v 15.8 2.5 15.6
v 14.2 2.5 15.6
v 14.2 2.8 12.4
v 15.8 2.8 12.4
v 15.8 2.8 15.6
v 14.2 2.8 15.6
f 535 537 536
f 535 538 537
f 531 532 533
f 531 533 534
f 531 536 532
f 531 535 536
f 534 533 537
f 534 537 538
f 531 534 538
f 531 538 535
f 532 537 533
f 532 536 537
o Benches_bench_well
usemtl wood
v 17.75 0 13.1
v 18.25 0 13.1
v 18.25 0 14.9
v 17.75 0 14.9
v 17.75 1.05 13.1
v 18.25 1.05 13.1
v 18.25 1.05 14.9
v 17.75 1.05 14.9
f 543 545 544
f 543 546 545
f 539 540 541
f 539 541 542
f 539 544 540
f 539 543 544
f 542 541 545
f 542 545 546
f 539 542 546
f 539 546 543
f 540 545 541
f 540 544 545
o LampPosts_lamp_post_1
usemtl metal
v 11.15 0 17
v 11.1299 0 17.075
v 11.075 0 17.1299
v 11 0 17.15
v 10.925 0 17.1299
v 10.8701 0 17.075
v 10.85 0 17
v 10.8701 0 16.925
v 10.925 0 16.8701
v 11 0 16.85
v 11.075 0 16.8701
v 11.1299 0 16.925
v 11.15 3.5 17
v 11.1299 3.5 17.075
v 11.075 3.5 17.1299
v 11 3.5 17.15
v 10.925 3.5 17.1299
v 10.8701 3.5 17.075
v 10.85 3.5 17
v 10.8701 3.5 16.925
v 10.925 3.5 16.8701
v 11 3.5 16.85
v 11.075 3.5 16.8701
v 11.1299 3.5 16.925
v 11 0 17
v 11 3.5 17
f 572 560 559
f 571 547 548
f 547 560 548
f 547 559 560
f 572 561 560
f 571 548 549
f 548 561 549
f 548 560 561
f 572 562 561
f 571 549 550
f 549 562 550
f 549 561 562
f 572 563 562
f 571 550 551
f 550 563 551
f 550 562 563
f 572 564 563
f 571 551 552
f 551 564 552
f 551 563 564
f 572 565 564
f 571 552 553
f 552 565 553
f 552 564 565
f 572 566 565
f 571 553 554
f 553 566 554
f 553 565 566
f 572 567 566
f 571 554 555
f 554 567 555
f 554 566 567
f 572 568 567
f 571 555 556
f 555 568 556
f 555 567 568
f 572 569 568
f 571 556 557
f 556 569 557
f 556 568 569
f 572 570 569
f 571 557 558
f 557 570 558
f 557 569 570
f 572 559 570
f 571 558 547
f 558 559 547
f 558 570 559
o LampPosts_lamp_post_2
usemtl metal
v 19.65 0 10.5
v 19.6299 0 10.575
v 19.575 0 10.6299
v 19.5 0 10.65
v 19.425 0 10.6299
v 19.3701 0 10.575
v 19.35 0 10.5
v 19.3701 0 10.425
v 19.425 0 10.3701
v 19.5 0 10.35
v 19.575 0 10.3701
v 19.6299 0 10.425
v 19.65 3.5 10.5
v 19.6299 3.5 10.575
v 19.575 3.5 10.6299
v 19.5 3.5 10.65
v 19.425 3.5 10.6299
v 19.3701 3.5 10.575
v 19.35 3.5 10.5
v 19.3701 3.5 10.425
v 19.425 3.5 10.3701
v 19.5 3.5 10.35
v 19.575 3.5 10.3701
v 19.6299 3.5 10.425
v 19.5 0 10.5
v 19.5 3.5 10.5
f 598 586 585
f 597 573 574
f 573 586 574
f 573 585 586
f 598 587 586
f 597 574 575
f 574 587 575
f 574 586 587
f 598 588 587
f 597 575 576
f 575 588 576
f 575 587 588
f 598 589 588
f 597 576 577
f 576 589 577
f 576 588 589
f 598 590 589
f 597 577 578
f 577 590 578
f 577 589 590
f 598 591 590
f 597 578 579
f 578 591 579
f 578 590 591
f 598 592 591
f 597 579 580
f 579 592 580
f 579 591 592
f 598 593 592
f 597 580 581
f 580 593 581
f 580 592 593
f 598 594 593
f 597 581 582
f 581 594 582
f 581 593 594
f 598 595 594
f 597 582 583
f 582 595 583
f 582 594 595
f 598 596 595
f 597 583 584
f 583 596 584
f 583 595 596
f 598 585 596
f 597 584 573
f 584 585 573
f 584 596 585
