# Avalon chunk: town_nw_01
# Generated by tools/Avalon.ChunkGen (town); regenerate it rather than editing it by hand
o Floor
v 0 -0.05 0
v 30 -0.05 0
v 30 -0.05 30
v 0 -0.05 30
v 0 0.05 0
v 30 0.05 0
v 30 0.05 30
v 0 0.05 30
f 5 7 6
f 5 8 7
f 1 2 3
f 1 3 4
f 1 6 2
f 1 5 6
f 4 3 7
f 4 7 8
f 1 4 8
f 1 8 5
f 2 7 3
f 2 6 7
o Wall_N
usemtl stone
v 0 0 29.75
v 30 0 29.75
v 30 0 30.25
v 0 0 30.25
v 0 2 29.75
v 30 2 29.75
v 30 2 30.25
v 0 2 30.25
f 13 15 14
f 13 16 15
f 9 10 11
f 9 11 12
f 9 14 10
f 9 13 14
f 12 11 15
f 12 15 16
f 9 12 16
f 9 16 13
f 10 15 11
f 10 14 15
o Wall_E_L
usemtl stone
v 29.75 0 0
v 30.25 0 0
v 30.25 0 12
v 29.75 0 12
v 29.75 2 0
v 30.25 2 0
v 30.25 2 12
v 29.75 2 12
f 21 23 22
f 21 24 23
f 17 18 19
f 17 19 20
f 17 22 18
f 17 21 22
f 20 19 23
f 20 23 24
f 17 20 24
f 17 24 21
f 18 23 19
f 18 22 23
o Wall_E_R
usemtl stone
v 29.75 0 18
v 30.25 0 18
v 30.25 0 30
v 29.75 0 30
v 29.75 2 18
v 30.25 2 18
v 30.25 2 30
v 29.75 2 30
f 29 31 30
f 29 32 31
f 25 26 27
f 25 27 28
f 25 30 26
f 25 29 30
f 28 27 31
f 28 31 32
f 25 28 32
f 25 32 29
f 26 31 27
f 26 30 31
o Wall_S_L
usemtl stone
v 0 0 -0.25
v 12 0 -0.25
v 12 0 0.25
v 0 0 0.25
v 0 2 -0.25
v 12 2 -0.25
v 12 2 0.25
v 0 2 0.25
f 37 39 38
f 37 40 39
f 33 34 35
f 33 35 36
f 33 38 34
f 33 37 38
f 36 35 39
f 36 39 40
f 33 36 40
f 33 40 37
f 34 39 35
f 34 38 39
o Wall_S_R
usemtl stone
v 18 0 -0.25
v 30 0 -0.25
v 30 0 0.25
v 18 0 0.25
v 18 2 -0.25
v 30 2 -0.25
v 30 2 0.25
v 18 2 0.25
f 45 47 46
f 45 48 47
f 41 42 43
f 41 43 44
f 41 46 42
f 41 45 46
f 44 43 47
f 44 47 48
f 41 44 48
f 41 48 45
f 42 47 43
f 42 46 47
o Wall_W
usemtl stone
v -0.25 0 0
v 0.25 0 0
v 0.25 0 30
v -0.25 0 30
v -0.25 2 0
v 0.25 2 0
v 0.25 2 30
v -0.25 2 30
f 53 55 54
f 53 56 55
f 49 50 51
f 49 51 52
f 49 54 50
f 49 53 54
f 52 51 55
f 52 55 56
f 49 52 56
f 49 56 53
f 50 55 51
f 50 54 55
o GateArch_pillar_w
usemtl stone
v 10.5 0 11.25
v 12 0 11.25
v 12 0 12.75
v 10.5 0 12.75
v 10.5 4.5 11.25
v 12 4.5 11.25
v 12 4.5 12.75
v 10.5 4.5 12.75
f 61 63 62
f 61 64 63
f 57 58 59
f 57 59 60
f 57 62 58
f 57 61 62
f 60 59 63
f 60 63 64
f 57 60 64
f 57 64 61
f 58 63 59
f 58 62 63
o GateArch_pillar_e
usemtl stone
v 18 0 11.25
v 19.5 0 11.25
v 19.5 0 12.75
v 18 0 12.75
v 18 4.5 11.25
v 19.5 4.5 11.25
v 19.5 4.5 12.75
v 18 4.5 12.75
f 69 71 70
f 69 72 71
f 65 66 67
f 65 67 68
f 65 70 66
f 65 69 70
f 68 67 71
f 68 71 72
f 65 68 72
f 65 72 69
f 66 71 67
f 66 70 71
o GateArch_lintel
usemtl stone
v 10.5 4.5 11.25
v 19.5 4.5 11.25
v 19.5 4.5 12.75
v 10.5 4.5 12.75
v 10.5 5.5 11.25
v 19.5 5.5 11.25
v 19.5 5.5 12.75
v 10.5 5.5 12.75
f 77 79 78
f 77 80 79
f 73 74 75
f 73 75 76
f 73 78 74
f 73 77 78
f 76 75 79
f 76 79 80
f 73 76 80
f 73 80 77
f 74 79 75
f 74 78 79
o Watchtower_body
usemtl stone
v 3 0 22
v 7 0 22
v 7 0 26
v 3 0 26
v 3 9 22
v 7 9 22
v 7 9 26
v 3 9 26
f 85 87 86
f 85 88 87
f 81 82 83
f 81 83 84
f 81 86 82
f 81 85 86
f 84 83 87
f 84 87 88
f 81 84 88
f 81 88 85
f 82 87 83
f 82 86 87
o Watchtower_roof
usemtl roof
v 2.7 9 21.7
v 7.3 9 21.7
v 7.3 9 26.3
v 2.7 9 26.3
v 2.7 11 24
v 7.3 11 24
f 89 90 91
f 89 91 92
f 89 94 90
f 89 93 94
f 92 91 94
f 92 94 93
f 89 92 93
f 90 94 91
o HuntersLodge_body
usemtl wood
v 20.5 0 3
v 27.25 0 3
v 27.25 0 11
v 20.5 0 11
v 20.5 4 3
v 27.25 4 3
v 27.25 4 11
v 20.5 4 11
f 99 101 100
f 99 102 101
f 95 96 97
f 95 97 98
f 95 100 96
f 95 99 100
f 98 97 101
f 98 101 102
f 95 98 102
f 95 102 99
f 96 101 97
f 96 100 101
o HuntersLodge_roof
usemtl roof
v 20.2 4 2.7
v 27.55 4 2.7
v 27.55 4 11.3
v 20.2 4 11.3
v 23.875 6 2.7
v 23.875 6 11.3
f 103 104 105
f 103 105 106
f 103 106 108
f 103 108 107
f 104 108 105
f 104 107 108
f 103 107 104
f 106 105 108
o HuntersLodge_porch_deck
usemtl wood
v 18 0 4.5
v 20.5 0 4.5
v 20.5 0 9.5
v 18 0 9.5
v 18 0.2 4.5
v 20.5 0.2 4.5
v 20.5 0.2 9.5
v 18 0.2 9.5
f 113 115 114
f 113 116 115
f 109 110 111
f 109 111 112
f 109 114 110
f 109 113 114
f 112 111 115
f 112 115 116
f 109 112 116
f 109 116 113
f 110 115 111
f 110 114 115
o HuntersLodge_porch_step
usemtl wood
v 17.5 0 4.5
v 18 0 4.5
v 18 0 9.5
v 17.5 0 9.5
v 17.5 0.1 4.5
v 18 0.1 4.5
v 18 0.1 9.5
v 17.5 0.1 9.5
f 121 123 122
f 121 124 123
f 117 118 119
f 117 119 120
f 117 122 118
f 117 121 122
f 120 119 123
f 120 123 124
f 117 120 124
f 117 124 121
f 118 123 119
f 118 122 123
o HuntersLodge_post_1
usemtl wood
v 18.37 0 4.75
v 18.3539 0 4.81
v 18.31 0 4.8539
v 18.25 0 4.87
v 18.19 0 4.8539
v 18.1461 0 4.81
v 18.13 0 4.75
v 18.1461 0 4.69
v 18.19 0 4.6461
v 18.25 0 4.63
v 18.31 0 4.6461
v 18.3539 0 4.69
v 18.37 3.2 4.75
v 18.3539 3.2 4.81
v 18.31 3.2 4.8539
v 18.25 3.2 4.87
v 18.19 3.2 4.8539
v 18.1461 3.2 4.81
v 18.13 3.2 4.75
v 18.1461 3.2 4.69
v 18.19 3.2 4.6461
v 18.25 3.2 4.63
v 18.31 3.2 4.6461
v 18.3539 3.2 4.69
v 18.25 0 4.75
v 18.25 3.2 4.75
f 150 138 137
f 149 125 126
f 125 138 126
f 125 137 138
f 150 139 138
f 149 126 127
f 126 139 127
f 126 138 139
f 150 140 139
f 149 127 128
f 127 140 128
f 127 139 140
f 150 141 140
f 149 128 129
f 128 141 129
f 128 140 141
f 150 142 141
f 149 129 130
f 129 142 130
f 129 141 142
f 150 143 142
f 149 130 131
f 130 143 131
f 130 142 143
f 150 144 143
f 149 131 132
f 131 144 132
f 131 143 144
f 150 145 144
f 149 132 133
f 132 145 133
f 132 144 145
f 150 146 145
f 149 133 134
f 133 146 134
f 133 145 146
f 150 147 146
f 149 134 135
f 134 147 135
f 134 146 147
f 150 148 147
f 149 135 136
f 135 148 136
f 135 147 148
f 150 137 148
f 149 136 125
f 136 137 125
f 136 148 137
o HuntersLodge_post_2
usemtl wood
v 18.37 0 9.25
v 18.3539 0 9.31
v 18.31 0 9.3539
v 18.25 0 9.37
v 18.19 0 9.3539
v 18.1461 0 9.31
v 18.13 0 9.25
v 18.1461 0 9.19
v 18.19 0 9.1461
v 18.25 0 9.13
v 18.31 0 9.1461
v 18.3539 0 9.19
v 18.37 3.2 9.25
v 18.3539 3.2 9.31
v 18.31 3.2 9.3539
v 18.25 3.2 9.37
v 18.19 3.2 9.3539
v 18.1461 3.2 9.31
v 18.13 3.2 9.25
v 18.1461 3.2 9.19
v 18.19 3.2 9.1461
v 18.25 3.2 9.13
v 18.31 3.2 9.1461
v 18.3539 3.2 9.19
v 18.25 0 9.25
v 18.25 3.2 9.25
f 176 164 163
f 175 151 152
f 151 164 152
f 151 163 164
f 176 165 164
f 175 152 153
f 152 165 153
f 152 164 165
f 176 166 165
f 175 153 154
f 153 166 154
f 153 165 166
f 176 167 166
f 175 154 155
f 154 167 155
f 154 166 167
f 176 168 167
f 175 155 156
f 155 168 156
f 155 167 168
f 176 169 168
f 175 156 157
f 156 169 157
f 156 168 169
f 176 170 169
f 175 157 158
f 157 170 158
f 157 169 170
f 176 171 170
f 175 158 159
f 158 171 159
f 158 170 171
f 176 172 171
f 175 159 160
f 159 172 160
f 159 171 172
f 176 173 172
f 175 160 161
f 160 173 161
f 160 172 173
f 176 174 173
f 175 161 162
f 161 174 162
f 161 173 174
f 176 163 174
f 175 162 151
f 162 163 151
f 162 174 163
o HuntersLodge_porch_roof
usemtl roof
v 17.9 3.2 4.2
v 20.6 3.2 4.2
v 20.6 3.2 9.8
v 17.9 3.2 9.8
v 17.9 3.5 4.2
v 20.6 3.5 4.2
v 20.6 3.5 9.8
v 17.9 3.5 9.8
f 181 183 182
f 181 184 183
f 177 178 179
f 177 179 180
f 177 182 178
f 177 181 182
f 180 179 183
f 180 183 184
f 177 180 184
f 177 184 181
f 178 183 179
f 178 182 183
o Cart_bed
usemtl wood
v 4 0.5 14
v 6.4 0.5 14
v 6.4 0.5 17.6
v 4 0.5 17.6
v 4 1.4 14
v 6.4 1.4 14
v 6.4 1.4 17.6
v 4 1.4 17.6
f 189 191 190
f 189 192 191
f 185 186 187
f 185 187 188
f 185 190 186
f 185 189 190
f 188 187 191
f 188 191 192
f 185 188 192
f 185 192 189
f 186 191 187
f 186 190 191
o Cart_wheel_w
usemtl wood
v 3.8 0 15.2
v 4 0 15.2
v 4 0 16.4
v 3.8 0 16.4
v 3.8 1.2 15.2
v 4 1.2 15.2
v 4 1.2 16.4
v 3.8 1.2 16.4
f 197 199 198
f 197 200 199
f 193 194 195
f 193 195 196
f 193 198 194
f 193 197 198
f 196 195 199
f 196 199 200
f 193 196 200
f 193 200 197
f 194 199 195
f 194 198 199
o Cart_wheel_e
usemtl wood
v 6.4 0 15.2
v 6.6 0 15.2
v 6.6 0 16.4
v 6.4 0 16.4
v 6.4 1.2 15.2
v 6.6 1.2 15.2
v 6.6 1.2 16.4
v 6.4 1.2 16.4
f 205 207 206
f 205 208 207
f 201 202 203
f 201 203 204
f 201 206 202
f 201 205 206
f 204 203 207
f 204 207 208
f 201 204 208
f 201 208 205
f 202 207 203
f 202 206 207
o Cart_shaft
usemtl wood
v 4.9 0 17.6
v 5.5 0 17.6
v 5.5 0 19.6
v 4.9 0 19.6
v 4.9 1.05 17.6
v 5.5 1.05 17.6
v 5.5 1.05 19.6
v 4.9 1.05 19.6
f 213 215 214
f 213 216 215
f 209 210 211
f 209 211 212
f 209 214 210
f 209 213 214
f 212 211 215
f 212 215 216
f 209 212 216
f 209 216 213
f 210 215 211
f 210 214 215
o CratesLodge_crate_1
usemtl wood
v 7.5 0 15
v 8.5 0 15
v 8.5 0 16
v 7.5 0 16
v 7.5 1.05 15
v 8.5 1.05 15
v 8.5 1.05 16
v 7.5 1.05 16
f 221 223 222
f 221 224 223
f 217 218 219
f 217 219 220
f 217 222 218
f 217 221 222
f 220 219 223
f 220 223 224
f 217 220 224
f 217 224 221
f 218 223 219
f 218 222 223
o CratesLodge_crate_2
usemtl wood
v 8.5 0 15
v 9.5 0 15
v 9.5 0 16
v 8.5 0 16
v 8.5 1.05 15
v 9.5 1.05 15
v 9.5 1.05 16
v 8.5 1.05 16
f 229 231 230
f 229 232 231
f 225 226 227
f 225 227 228
f 225 230 226
f 225 229 230
f 228 227 231
f 228 231 232
f 225 228 232
f 225 232 229
f 226 231 227
f 226 230 231
o CratesLodge_crate_3_stacked
usemtl wood
v 8 1.05 15
v 9 1.05 15
v 9 1.05 16
v 8 1.05 16
v 8 2.05 15
v 9 2.05 15
v 9 2.05 16
v 8 2.05 16
f 237 239 238
f 237 240 239
f 233 234 235
f 233 235 236
f 233 238 234
f 233 237 238
f 236 235 239
f 236 239 240
f 233 236 240
f 233 240 237
f 234 239 235
f 234 238 239
o LampPosts_lamp_post_1
usemtl metal
v 9.15 0 11
v 9.1299 0 11.075
v 9.075 0 11.1299
v 9 0 11.15
v 8.925 0 11.1299
v 8.8701 0 11.075
v 8.85 0 11
v 8.8701 0 10.925
v 8.925 0 10.8701
v 9 0 10.85
v 9.075 0 10.8701
v 9.1299 0 10.925
v 9.15 3.5 11
v 9.1299 3.5 11.075
v 9.075 3.5 11.1299
v 9 3.5 11.15
v 8.925 3.5 11.1299
v 8.8701 3.5 11.075
v 8.85 3.5 11
v 8.8701 3.5 10.925
v 8.925 3.5 10.8701
v 9 3.5 10.85
v 9.075 3.5 10.8701
v 9.1299 3.5 10.925
v 9 0 11
v 9 3.5 11
f 266 254 253
f 265 241 242
f 241 254 242
f 241 253 254
f 266 255 254
f 265 242 243
f 242 255 243
f 242 254 255
f 266 256 255
f 265 243 244
f 243 256 244
f 243 255 256
f 266 257 256
f 265 244 245
f 244 257 245
f 244 256 257
f 266 258 257
f 265 245 246
f 245 258 246
f 245 257 258
f 266 259 258
f 265 246 247
f 246 259 247
f 246 258 259
f 266 260 259
f 265 247 248
f 247 260 248
f 247 259 260
f 266 261 260
f 265 248 249
f 248 261 249
f 248 260 261
f 266 262 261
f 265 249 250
f 249 262 250
f 249 261 262
f 266 263 262
f 265 250 251
f 250 263 251
f 250 262 263
f 266 264 263
f 265 251 252
f 251 264 252
f 251 263 264
f 266 253 264
f 265 252 241
f 252 253 241
f 252 264 253
o LampPosts_lamp_post_2
usemtl metal
v 21.15 0 12.5
v 21.1299 0 12.575
v 21.075 0 12.6299
v 21 0 12.65
v 20.925 0 12.6299
v 20.8701 0 12.575
v 20.85 0 12.5
v 20.8701 0 12.425
v 20.925 0 12.3701
v 21 0 12.35
v 21.075 0 12.3701
v 21.1299 0 12.425
v 21.15 3.5 12.5
v 21.1299 3.5 12.575
v 21.075 3.5 12.6299
v 21 3.5 12.65
v 20.925 3.5 12.6299
v 20.8701 3.5 12.575
v 20.85 3.5 12.5
v 20.8701 3.5 12.425
v 20.925 3.5 12.3701
v 21 3.5 12.35
v 21.075 3.5 12.3701
v 21.1299 3.5 12.425
v 21 0 12.5
v 21 3.5 12.5
f 292 280 279
f 291 267 268
f 267 280 268
f 267 279 280
f 292 281 280
f 291 268 269
f 268 281 269
f 268 280 281
f 292 282 281
f 291 269 270
f 269 282 270
f 269 281 282
f 292 283 282
f 291 270 271
f 270 283 271
f 270 282 283
f 292 284 283
f 291 271 272
f 271 284 272
f 271 283 284
f 292 285 284
f 291 272 273
f 272 285 273
f 272 284 285
f 292 286 285
f 291 273 274
f 273 286 274
f 273 285 286
f 292 287 286
f 291 274 275
f 274 287 275
f 274 286 287
f 292 288 287
f 291 275 276
f 275 288 276
f 275 287 288
f 292 289 288
f 291 276 277
f 276 289 277
f 276 288 289
f 292 290 289
f 291 277 278
f 277 290 278
f 277 289 290
f 292 279 290
f 291 278 267
f 278 279 267
f 278 290 279
o LampPosts_lamp_post_3
usemtl metal
v 11.15 0 18
v 11.1299 0 18.075
v 11.075 0 18.1299
v 11 0 18.15
v 10.925 0 18.1299
v 10.8701 0 18.075
v 10.85 0 18
v 10.8701 0 17.925
v 10.925 0 17.8701
v 11 0 17.85
v 11.075 0 17.8701
v 11.1299 0 17.925
v 11.15 3.5 18
v 11.1299 3.5 18.075
v 11.075 3.5 18.1299
v 11 3.5 18.15
v 10.925 3.5 18.1299
v 10.8701 3.5 18.075
v 10.85 3.5 18
v 10.8701 3.5 17.925
v 10.925 3.5 17.8701
v 11 3.5 17.85
v 11.075 3.5 17.8701
v 11.1299 3.5 17.925
v 11 0 18
v 11 3.5 18
f 318 306 305
f 317 293 294
f 293 306 294
f 293 305 306
f 318 307 306
f 317 294 295
f 294 307 295
f 294 306 307
f 318 308 307
f 317 295 296
f 295 308 296
f 295 307 308
f 318 309 308
f 317 296 297
f 296 309 297
f 296 308 309
f 318 310 309
f 317 297 298
f 297 310 298
f 297 309 310
f 318 311 310
f 317 298 299
f 298 311 299
f 298 310 311
f 318 312 311
f 317 299 300
f 299 312 300
f 299 311 312
f 318 313 312
f 317 300 301
f 300 313 301
f 300 312 313
f 318 314 313
f 317 301 302
f 301 314 302
f 301 313 314
f 318 315 314
f 317 302 303
f 302 315 303
f 302 314 315
f 318 316 315
f 317 303 304
f 303 316 304
f 303 315 316
f 318 305 316
f 317 304 293
f 304 305 293
f 304 316 305
o LampPosts_lamp_post_4
usemtl metal
v 19.15 0 18
v 19.1299 0 18.075
v 19.075 0 18.1299
v 19 0 18.15
v 18.925 0 18.1299
v 18.8701 0 18.075
v 18.85 0 18
v 18.8701 0 17.925
v 18.925 0 17.8701
v 19 0 17.85
v 19.075 0 17.8701
v 19.1299 0 17.925
v 19.15 3.5 18
v 19.1299 3.5 18.075
v 19.075 3.5 18.1299
v 19 3.5 18.15
v 18.925 3.5 18.1299
v 18.8701 3.5 18.075
v 18.85 3.5 18
v 18.8701 3.5 17.925
v 18.925 3.5 17.8701
v 19 3.5 17.85
v 19.075 3.5 17.8701
v 19.1299 3.5 17.925
v 19 0 18
v 19 3.5 18
f 344 332 331
f 343 319 320
f 319 332 320
f 319 331 332
f 344 333 332
f 343 320 321
f 320 333 321
f 320 332 333
f 344 334 333
f 343 321 322
f 321 334 322
f 321 333 334
f 344 335 334
f 343 322 323
f 322 335 323
f 322 334 335
f 344 336 335
f 343 323 324
f 323 336 324
f 323 335 336
f 344 337 336
f 343 324 325
f 324 337 325
f 324 336 337
f 344 338 337
f 343 325 326
f 325 338 326
f 325 337 338
f 344 339 338
f 343 326 327
f 326 339 327
f 326 338 339
f 344 340 339
f 343 327 328
f 327 340 328
f 327 339 340
f 344 341 340
f 343 328 329
f 328 341 329
f 328 340 341
f 344 342 341
f 343 329 330
f 329 342 330
f 329 341 342
f 344 331 342
f 343 330 319
f 330 331 319
f 330 342 331
o Benches_bench_lodge
usemtl wood
v 22 0 12.5
v 23.8 0 12.5
v 23.8 0 13
v 22 0 13
v 22 1.05 12.5
v 23.8 1.05 12.5
v 23.8 1.05 13
v 22 1.05 13
f 349 351 350
f 349 352 351
f 345 346 347
f 345 347 348
f 345 350 346
f 345 349 350
f 348 347 351
f 348 351 352
f 345 348 352
f 345 352 349
f 346 351 347
f 346 350 351
