# Avalon chunk: town_sw_01
# Generated by tools/Avalon.ChunkGen (town); regenerate it rather than editing it by hand
o Floor
v 0 -0.05 0
v 30 -0.05 0
v 30 -0.05 30
v 0 -0.05 30
v 0 0.05 0
v 30 0.05 0
v 30 0.05 30
v 0 0.05 30
f 5 7 6
f 5 8 7
f 1 2 3
f 1 3 4
f 1 6 2
f 1 5 6
f 4 3 7
f 4 7 8
f 1 4 8
f 1 8 5
f 2 7 3
f 2 6 7
o Wall_N_L
usemtl stone
v 0 0 29.75
v 12 0 29.75
v 12 0 30.25
v 0 0 30.25
v 0 2 29.75
v 12 2 29.75
v 12 2 30.25
v 0 2 30.25
f 13 15 14
f 13 16 15
f 9 10 11
f 9 11 12
f 9 14 10
f 9 13 14
f 12 11 15
f 12 15 16
f 9 12 16
f 9 16 13
f 10 15 11
f 10 14 15
o Wall_N_R
usemtl stone
v 18 0 29.75
v 30 0 29.75
v 30 0 30.25
v 18 0 30.25
v 18 2 29.75
v 30 2 29.75
v 30 2 30.25
v 18 2 30.25
f 21 23 22
f 21 24 23
f 17 18 19
f 17 19 20
f 17 22 18
f 17 21 22
f 20 19 23
f 20 23 24
f 17 20 24
f 17 24 21
f 18 23 19
f 18 22 23
o Wall_E_L
usemtl stone
v 29.75 0 0
v 30.25 0 0
v 30.25 0 12
v 29.75 0 12
v 29.75 2 0
v 30.25 2 0
v 30.25 2 12
v 29.75 2 12
f 29 31 30
f 29 32 31
f 25 26 27
f 25 27 28
f 25 30 26
f 25 29 30
f 28 27 31
f 28 31 32
f 25 28 32
f 25 32 29
f 26 31 27
f 26 30 31
o Wall_E_R
usemtl stone
v 29.75 0 18
v 30.25 0 18
v 30.25 0 30
v 29.75 0 30
v 29.75 2 18
v 30.25 2 18
v 30.25 2 30
v 29.75 2 30
f 37 39 38
f 37 40 39
f 33 34 35
f 33 35 36
f 33 38 34
f 33 37 38
f 36 35 39
f 36 39 40
f 33 36 40
f 33 40 37
f 34 39 35
f 34 38 39
o Wall_S
usemtl stone
v 0 0 -0.25
v 30 0 -0.25
v 30 0 0.25
v 0 0 0.25
v 0 2 -0.25
v 30 2 -0.25
v 30 2 0.25
v 0 2 0.25
f 45 47 46
f 45 48 47
f 41 42 43
f 41 43 44
f 41 46 42
f 41 45 46
f 44 43 47
f 44 47 48
f 41 44 48
f 41 48 45
f 42 47 43
f 42 46 47
o Wall_W
usemtl stone
v -0.25 0 0
v 0.25 0 0
v 0.25 0 30
v -0.25 0 30
v -0.25 2 0
v 0.25 2 0
v 0.25 2 30
v -0.25 2 30
f 53 55 54
f 53 56 55
f 49 50 51
f 49 51 52
f 49 54 50
f 49 53 54
f 52 51 55
f 52 55 56
f 49 52 56
f 49 56 53
f 50 55 51
f 50 54 55
o TownHall_body
usemtl plaster
v 2.8 0 8
v 10 0 8
v 10 0 22
v 2.8 0 22
v 2.8 5.5 8
v 10 5.5 8
v 10 5.5 22
v 2.8 5.5 22
f 61 63 62
f 61 64 63
f 57 58 59
f 57 59 60
f 57 62 58
f 57 61 62
f 60 59 63
f 60 63 64
f 57 60 64
f 57 64 61
f 58 63 59
f 58 62 63
o TownHall_roof
usemtl roof
v 2.5 5.5 7.7
v 10.3 5.5 7.7
v 10.3 5.5 22.3
v 2.5 5.5 22.3
v 6.4 7.6 7.7
v 6.4 7.6 22.3
f 65 66 67
f 65 67 68
f 65 68 70
f 65 70 69
f 66 70 67
f 66 69 70
f 65 69 66
f 68 67 70
o TownHall_porch_deck
usemtl wood
v 10 0 11.5
v 12 0 11.5
v 12 0 18.5
v 10 0 18.5
v 10 0.2 11.5
v 12 0.2 11.5
v 12 0.2 18.5
v 10 0.2 18.5
f 75 77 76
f 75 78 77
f 71 72 73
f 71 73 74
f 71 76 72
f 71 75 76
f 74 73 77
f 74 77 78
f 71 74 78
f 71 78 75
f 72 77 73
f 72 76 77
o TownHall_porch_step
usemtl stone
v 12 0 11.5
v 12.5 0 11.5
v 12.5 0 18.5
v 12 0 18.5
v 12 0.1 11.5
v 12.5 0.1 11.5
v 12.5 0.1 18.5
v 12 0.1 18.5
f 83 85 84
f 83 86 85
f 79 80 81
f 79 81 82
f 79 84 80
f 79 83 84
f 82 81 85
f 82 85 86
f 79 82 86
f 79 86 83
f 80 85 81
f 80 84 85
o TownHall_post_1
usemtl wood
v 11.92 0 11.75
v 11.9039 0 11.81
v 11.86 0 11.8539
v 11.8 0 11.87
v 11.74 0 11.8539
v 11.6961 0 11.81
v 11.68 0 11.75
v 11.6961 0 11.69
v 11.74 0 11.6461
v 11.8 0 11.63
v 11.86 0 11.6461
v 11.9039 0 11.69
v 11.92 3.2 11.75
v 11.9039 3.2 11.81
v 11.86 3.2 11.8539
v 11.8 3.2 11.87
v 11.74 3.2 11.8539
v 11.6961 3.2 11.81
v 11.68 3.2 11.75
v 11.6961 3.2 11.69
v 11.74 3.2 11.6461
v 11.8 3.2 11.63
v 11.86 3.2 11.6461
v 11.9039 3.2 11.69
v 11.8 0 11.75
v 11.8 3.2 11.75
f 112 100 99
f 111 87 88
f 87 100 88
f 87 99 100
f 112 101 100
f 111 88 89
f 88 101 89
f 88 100 101
f 112 102 101
f 111 89 90
f 89 102 90
f 89 101 102
f 112 103 102
f 111 90 91
f 90 103 91
f 90 102 103
f 112 104 103
f 111 91 92
f 91 104 92
f 91 103 104
f 112 105 104
f 111 92 93
f 92 105 93
f 92 104 105
f 112 106 105
f 111 93 94
f 93 106 94
f 93 105 106
f 112 107 106
f 111 94 95
f 94 107 95
f 94 106 107
f 112 108 107
f 111 95 96
f 95 108 96
f 95 107 108
f 112 109 108
f 111 96 97
f 96 109 97
f 96 108 109
f 112 110 109
f 111 97 98
f 97 110 98
f 97 109 110
f 112 99 110
f 111 98 87
f 98 99 87
f 98 110 99
o TownHall_post_2
usemtl wood
v 11.92 0 18.25
v 11.9039 0 18.31
v 11.86 0 18.3539
v 11.8 0 18.37
v 11.74 0 18.3539
v 11.6961 0 18.31
v 11.68 0 18.25
v 11.6961 0 18.19
v 11.74 0 18.1461
v 11.8 0 18.13
v 11.86 0 18.1461
v 11.9039 0 18.19
v 11.92 3.2 18.25
v 11.9039 3.2 18.31
v 11.86 3.2 18.3539
v 11.8 3.2 18.37
v 11.74 3.2 18.3539
v 11.6961 3.2 18.31
v 11.68 3.2 18.25
v 11.6961 3.2 18.19
v 11.74 3.2 18.1461
v 11.8 3.2 18.13
v 11.86 3.2 18.1461
v 11.9039 3.2 18.19
v 11.8 0 18.25
v 11.8 3.2 18.25
f 138 126 125
f 137 113 114
f 113 126 114
f 113 125 126
f 138 127 126
f 137 114 115
f 114 127 115
f 114 126 127
f 138 128 127
f 137 115 116
f 115 128 116
f 115 127 128
f 138 129 128
f 137 116 117
f 116 129 117
f 116 128 129
f 138 130 129
f 137 117 118
f 117 130 118
f 117 129 130
f 138 131 130
f 137 118 119
f 118 131 119
f 118 130 131
f 138 132 131
f 137 119 120
f 119 132 120
f 119 131 132
f 138 133 132
f 137 120 121
f 120 133 121
f 120 132 133
f 138 134 133
f 137 121 122
f 121 134 122
f 121 133 134
f 138 135 134
f 137 122 123
f 122 135 123
f 122 134 135
f 138 136 135
f 137 123 124
f 123 136 124
f 123 135 136
f 138 125 136
f 137 124 113
f 124 125 113
f 124 136 125
o TownHall_porch_roof
usemtl roof
v 9.9 3.2 11.2
v 12.4 3.2 11.2
v 12.4 3.2 18.8
v 9.9 3.2 18.8
v 9.9 3.5 11.2
v 12.4 3.5 11.2
v 12.4 3.5 18.8
v 9.9 3.5 18.8
f 143 145 144
f 143 146 145
f 139 140 141
f 139 141 142
f 139 144 140
f 139 143 144
f 142 141 145
f 142 145 146
f 139 142 146
f 139 146 143
f 140 145 141
f 140 144 145
o Fountain_basin
usemtl stone
v 17.2 0 7.5
v 16.9053 0 8.6
v 16.1 0 9.4053
v 15 0 9.7
v 13.9 0 9.4053
v 13.0947 0 8.6
v 12.8 0 7.5
v 13.0947 0 6.4
v 13.9 0 5.5947
v 15 0 5.3
v 16.1 0 5.5947
v 16.9053 0 6.4
v 17.2 1.1 7.5
v 16.9053 1.1 8.6
v 16.1 1.1 9.4053
v 15 1.1 9.7
v 13.9 1.1 9.4053
v 13.0947 1.1 8.6
v 12.8 1.1 7.5
v 13.0947 1.1 6.4
v 13.9 1.1 5.5947
v 15 1.1 5.3
v 16.1 1.1 5.5947
v 16.9053 1.1 6.4
v 15 0 7.5
v 15 1.1 7.5
f 172 160 159
f 171 147 148
f 147 160 148
f 147 159 160
f 172 161 160
f 171 148 149
f 148 161 149
f 148 160 161
f 172 162 161
f 171 149 150
f 149 162 150
f 149 161 162
f 172 163 162
f 171 150 151
f 150 163 151
f 150 162 163
f 172 164 163
f 171 151 152
f 151 164 152
f 151 163 164
f 172 165 164
f 171 152 153
f 152 165 153
f 152 164 165
f 172 166 165
f 171 153 154
f 153 166 154
f 153 165 166
f 172 167 166
f 171 154 155
f 154 167 155
f 154 166 167
f 172 168 167
f 171 155 156
f 155 168 156
f 155 167 168
f 172 169 168
f 171 156 157
f 156 169 157
f 156 168 169
f 172 170 169
f 171 157 158
f 157 170 158
f 157 169 170
f 172 159 170
f 171 158 147
f 158 159 147
f 158 170 159
o Fountain_water
usemtl water
v 17 0.9 7.5
v 16.732 0.9 8.5
v 16 0.9 9.2321
v 15 0.9 9.5
v 14 0.9 9.2321
v 13.2679 0.9 8.5
v 13 0.9 7.5
v 13.2679 0.9 6.5
v 14 0.9 5.7679
v 15 0.9 5.5
v 16 0.9 5.7679
v 16.732 0.9 6.5
v 17 1 7.5
v 16.732 1 8.5
v 16 1 9.2321
v 15 1 9.5
v 14 1 9.2321
v 13.2679 1 8.5
v 13 1 7.5
v 13.2679 1 6.5
v 14 1 5.7679
v 15 1 5.5
v 16 1 5.7679
v 16.732 1 6.5
v 15 0.9 7.5
v 15 1 7.5
f 198 186 185
f 197 173 174
f 173 186 174
f 173 185 186
f 198 187 186
f 197 174 175
f 174 187 175
f 174 186 187
f 198 188 187
f 197 175 176
f 175 188 176
f 175 187 188
f 198 189 188
f 197 176 177
f 176 189 177
f 176 188 189
f 198 190 189
f 197 177 178
f 177 190 178
f 177 189 190
f 198 191 190
f 197 178 179
f 178 191 179
f 178 190 191
f 198 192 191
f 197 179 180
f 179 192 180
f 179 191 192
f 198 193 192
f 197 180 181
f 180 193 181
f 180 192 193
f 198 194 193
f 197 181 182
f 181 194 182
f 181 193 194
f 198 195 194
f 197 182 183
f 182 195 183
f 182 194 195
f 198 196 195
f 197 183 184
f 183 196 184
f 183 195 196
f 198 185 196
f 197 184 173
f 184 185 173
f 184 196 185
o Fountain_column
usemtl stone
v 15.5 0 7.5
v 15.433 0 7.75
v 15.25 0 7.933
v 15 0 8
v 14.75 0 7.933
v 14.567 0 7.75
v 14.5 0 7.5
v 14.567 0 7.25
v 14.75 0 7.067
v 15 0 7
v 15.25 0 7.067
v 15.433 0 7.25
v 15.5 2.2 7.5
v 15.433 2.2 7.75
v 15.25 2.2 7.933
v 15 2.2 8
v 14.75 2.2 7.933
v 14.567 2.2 7.75
v 14.5 2.2 7.5
v 14.567 2.2 7.25
v 14.75 2.2 7.067
v 15 2.2 7
v 15.25 2.2 7.067
v 15.433 2.2 7.25
v 15 0 7.5
v 15 2.2 7.5
f 224 212 211
f 223 199 200
f 199 212 200
f 199 211 212
f 224 213 212
f 223 200 201
f 200 213 201
f 200 212 213
f 224 214 213
f 223 201 202
f 201 214 202
f 201 213 214
f 224 215 214
f 223 202 203
f 202 215 203
f 202 214 215
f 224 216 215
f 223 203 204
f 203 216 204
f 203 215 216
f 224 217 216
f 223 204 205
f 204 217 205
f 204 216 217
f 224 218 217
f 223 205 206
f 205 218 206
f 205 217 218
f 224 219 218
f 223 206 207
f 206 219 207
f 206 218 219
f 224 220 219
f 223 207 208
f 207 220 208
f 207 219 220
f 224 221 220
f 223 208 209
f 208 221 209
f 208 220 221
f 224 222 221
f 223 209 210
f 209 222 210
f 209 221 222
f 224 211 222
f 223 210 199
f 210 211 199
f 210 222 211
o Fountain_upper_bowl
usemtl stone
v 15.9 1.6 7.5
v 15.7794 1.6 7.95
v 15.45 1.6 8.2794
v 15 1.6 8.4
v 14.55 1.6 8.2794
v 14.2206 1.6 7.95
v 14.1 1.6 7.5
v 14.2206 1.6 7.05
v 14.55 1.6 6.7206
v 15 1.6 6.6
v 15.45 1.6 6.7206
v 15.7794 1.6 7.05
v 15.9 1.85 7.5
v 15.7794 1.85 7.95
v 15.45 1.85 8.2794
v 15 1.85 8.4
v 14.55 1.85 8.2794
v 14.2206 1.85 7.95
v 14.1 1.85 7.5
v 14.2206 1.85 7.05
v 14.55 1.85 6.7206
v 15 1.85 6.6
v 15.45 1.85 6.7206
v 15.7794 1.85 7.05
v 15 1.6 7.5
v 15 1.85 7.5
f 250 238 237
f 249 225 226
f 225 238 226
f 225 237 238
f 250 239 238
f 249 226 227
f 226 239 227
f 226 238 239
f 250 240 239
f 249 227 228
f 227 240 228
f 227 239 240
f 250 241 240
f 249 228 229
f 228 241 229
f 228 240 241
f 250 242 241
f 249 229 230
f 229 242 230
f 229 241 242
f 250 243 242
f 249 230 231
f 230 243 231
f 230 242 243
f 250 244 243
f 249 231 232
f 231 244 232
f 231 243 244
f 250 245 244
f 249 232 233
f 232 245 233
f 232 244 245
f 250 246 245
f 249 233 234
f 233 246 234
f 233 245 246
f 250 247 246
f 249 234 235
f 234 247 235
f 234 246 247
f 250 248 247
f 249 235 236
f 235 248 236
f 235 247 248
f 250 237 248
f 249 236 225
f 236 237 225
f 236 248 237
o Benches_bench_w
usemtl wood
v 10 0 6.6
v 10.5 0 6.6
v 10.5 0 8.4
v 10 0 8.4
v 10 0.9 6.6
v 10.5 0.9 6.6
v 10.5 0.9 8.4
v 10 0.9 8.4
f 255 257 256
f 255 258 257
f 251 252 253
f 251 253 254
f 251 256 252
f 251 255 256
f 254 253 257
f 254 257 258
f 251 254 258
f 251 258 255
f 252 257 253
f 252 256 257
o Benches_bench_e
usemtl wood
v 19.5 0 6.6
v 20 0 6.6
v 20 0 8.4
v 19.5 0 8.4
v 19.5 0.9 6.6
v 20 0.9 6.6
v 20 0.9 8.4
v 19.5 0.9 8.4
f 263 265 264
f 263 266 265
f 259 260 261
f 259 261 262
f 259 264 260
f 259 263 264
f 262 261 265
f 262 265 266
f 259 262 266
f 259 266 263
f 260 265 261
f 260 264 265
o Benches_bench_s
usemtl wood
v 14.1 0 3.4
v 15.9 0 3.4
v 15.9 0 3.9
v 14.1 0 3.9
v 14.1 0.9 3.4
v 15.9 0.9 3.4
v 15.9 0.9 3.9
v 14.1 0.9 3.9
f 271 273 272
f 271 274 273
f 267 268 269
f 267 269 270
f 267 272 268
f 267 271 272
f 270 269 273
f 270 273 274
f 267 270 274
f 267 274 271
f 268 273 269
f 268 272 273
o Benches_bench_ne
usemtl wood
v 23.1 0 24.5
v 24.9 0 24.5
v 24.9 0 25
v 23.1 0 25
v 23.1 0.9 24.5
v 24.9 0.9 24.5
v 24.9 0.9 25
v 23.1 0.9 25
f 279 281 280
f 279 282 281
f 275 276 277
f 275 277 278
f 275 280 276
f 275 279 280
f 278 277 281
f 278 281 282
f 275 278 282
f 275 282 279
f 276 281 277
f 276 280 281
o Benches_bench_se
usemtl wood
v 23.1 0 5
v 24.9 0 5
v 24.9 0 5.5
v 23.1 0 5.5
v 23.1 0.9 5
v 24.9 0.9 5
v 24.9 0.9 5.5
v 23.1 0.9 5.5
f 287 289 288
f 287 290 289
f 283 284 285
f 283 285 286
f 283 288 284
f 283 287 288
f 286 285 289
f 286 289 290
f 283 286 290
f 283 290 287
f 284 289 285
f 284 288 289
o LampPosts_lamp_post_1
usemtl metal
v 10.65 0 20.5
v 10.6299 0 20.575
v 10.575 0 20.6299
v 10.5 0 20.65
v 10.425 0 20.6299
v 10.3701 0 20.575
v 10.35 0 20.5
v 10.3701 0 20.425
v 10.425 0 20.3701
v 10.5 0 20.35
v 10.575 0 20.3701
v 10.6299 0 20.425
v 10.65 3.5 20.5
v 10.6299 3.5 20.575
v 10.575 3.5 20.6299
v 10.5 3.5 20.65
v 10.425 3.5 20.6299
v 10.3701 3.5 20.575
v 10.35 3.5 20.5
v 10.3701 3.5 20.425
v 10.425 3.5 20.3701
v 10.5 3.5 20.35
v 10.575 3.5 20.3701
v 10.6299 3.5 20.425
v 10.5 0 20.5
v 10.5 3.5 20.5
f 316 304 303
f 315 291 292
f 291 304 292
f 291 303 304
f 316 305 304
f 315 292 293
f 292 305 293
f 292 304 305
f 316 306 305
f 315 293 294
f 293 306 294
f 293 305 306
f 316 307 306
f 315 294 295
f 294 307 295
f 294 306 307
f 316 308 307
f 315 295 296
f 295 308 296
f 295 307 308
f 316 309 308
f 315 296 297
f 296 309 297
f 296 308 309
f 316 310 309
f 315 297 298
f 297 310 298
f 297 309 310
f 316 311 310
f 315 298 299
f 298 311 299
f 298 310 311
f 316 312 311
f 315 299 300
f 299 312 300
f 299 311 312
f 316 313 312
f 315 300 301
f 300 313 301
f 300 312 313
f 316 314 313
f 315 301 302
f 301 314 302
f 301 313 314
f 316 303 314
f 315 302 291
f 302 303 291
f 302 314 303
o LampPosts_lamp_post_2
usemtl metal
v 10.65 0 9.5
v 10.6299 0 9.575
v 10.575 0 9.6299
v 10.5 0 9.65
v 10.425 0 9.6299
v 10.3701 0 9.575
v 10.35 0 9.5
v 10.3701 0 9.425
v 10.425 0 9.3701
v 10.5 0 9.35
v 10.575 0 9.3701
v 10.6299 0 9.425
v 10.65 3.5 9.5
v 10.6299 3.5 9.575
v 10.575 3.5 9.6299
v 10.5 3.5 9.65
v 10.425 3.5 9.6299
v 10.3701 3.5 9.575
v 10.35 3.5 9.5
v 10.3701 3.5 9.425
v 10.425 3.5 9.3701
v 10.5 3.5 9.35
v 10.575 3.5 9.3701
v 10.6299 3.5 9.425
v 10.5 0 9.5
v 10.5 3.5 9.5
f 342 330 329
f 341 317 318
f 317 330 318
f 317 329 330
f 342 331 330
f 341 318 319
f 318 331 319
f 318 330 331
f 342 332 331
f 341 319 320
f 319 332 320
f 319 331 332
f 342 333 332
f 341 320 321
f 320 333 321
f 320 332 333
f 342 334 333
f 341 321 322
f 321 334 322
f 321 333 334
f 342 335 334
f 341 322 323
f 322 335 323
f 322 334 335
f 342 336 335
f 341 323 324
f 323 336 324
f 323 335 336
f 342 337 336
f 341 324 325
f 324 337 325
f 324 336 337
f 342 338 337
f 341 325 326
f 325 338 326
f 325 337 338
f 342 339 338
f 341 326 327
f 326 339 327
f 326 338 339
f 342 340 339
f 341 327 328
f 327 340 328
f 327 339 340
f 342 329 340
f 341 328 317
f 328 329 317
f 328 340 329
o LampPosts_lamp_post_3
usemtl metal
v 19.65 0 20.5
v 19.6299 0 20.575
v 19.575 0 20.6299
v 19.5 0 20.65
v 19.425 0 20.6299
v 19.3701 0 20.575
v 19.35 0 20.5
v 19.3701 0 20.425
v 19.425 0 20.3701
v 19.5 0 20.35
v 19.575 0 20.3701
v 19.6299 0 20.425
v 19.65 3.5 20.5
v 19.6299 3.5 20.575
v 19.575 3.5 20.6299
v 19.5 3.5 20.65
v 19.425 3.5 20.6299
v 19.3701 3.5 20.575
v 19.35 3.5 20.5
v 19.3701 3.5 20.425
v 19.425 3.5 20.3701
v 19.5 3.5 20.35
v 19.575 3.5 20.3701
v 19.6299 3.5 20.425
v 19.5 0 20.5
v 19.5 3.5 20.5
f 368 356 355
f 367 343 344
f 343 356 344
f 343 355 356
f 368 357 356
f 367 344 345
f 344 357 345
f 344 356 357
f 368 358 357
f 367 345 346
f 345 358 346
f 345 357 358
f 368 359 358
f 367 346 347
f 346 359 347
f 346 358 359
f 368 360 359
f 367 347 348
f 347 360 348
f 347 359 360
f 368 361 360
f 367 348 349
f 348 361 349
f 348 360 361
f 368 362 361
f 367 349 350
f 349 362 350
f 349 361 362
f 368 363 362
f 367 350 351
f 350 363 351
f 350 362 363
f 368 364 363
f 367 351 352
f 351 364 352
f 351 363 364
f 368 365 364
f 367 352 353
f 352 365 353
f 352 364 365
f 368 366 365
f 367 353 354
f 353 366 354
f 353 365 366
f 368 355 366
f 367 354 343
f 354 355 343
f 354 366 355
o LampPosts_lamp_post_4
usemtl metal
v 19.65 0 9.5
v 19.6299 0 9.575
v 19.575 0 9.6299
v 19.5 0 9.65
v 19.425 0 9.6299
v 19.3701 0 9.575
v 19.35 0 9.5
v 19.3701 0 9.425
v 19.425 0 9.3701
v 19.5 0 9.35
v 19.575 0 9.3701
v 19.6299 0 9.425
v 19.65 3.5 9.5
v 19.6299 3.5 9.575
v 19.575 3.5 9.6299
v 19.5 3.5 9.65
v 19.425 3.5 9.6299
v 19.3701 3.5 9.575
v 19.35 3.5 9.5
v 19.3701 3.5 9.425
v 19.425 3.5 9.3701
v 19.5 3.5 9.35
v 19.575 3.5 9.3701
v 19.6299 3.5 9.425
v 19.5 0 9.5
v 19.5 3.5 9.5
f 394 382 381
f 393 369 370
f 369 382 370
f 369 381 382
f 394 383 382
f 393 370 371
f 370 383 371
f 370 382 383
f 394 384 383
f 393 371 372
f 371 384 372
f 371 383 384
f 394 385 384
f 393 372 373
f 372 385 373
f 372 384 385
f 394 386 385
f 393 373 374
f 373 386 374
f 373 385 386
f 394 387 386
f 393 374 375
f 374 387 375
f 374 386 387
f 394 388 387
f 393 375 376
f 375 388 376
f 375 387 388
f 394 389 388
f 393 376 377
f 376 389 377
f 376 388 389
f 394 390 389
f 393 377 378
f 377 390 378
f 377 389 390
f 394 391 390
f 393 378 379
f 378 391 379
f 378 390 391
f 394 392 391
f 393 379 380
f 379 392 380
f 379 391 392
f 394 381 392
f 393 380 369
f 380 381 369
f 380 392 381
o LampPosts_lamp_post_5
usemtl metal
v 24.15 0 21.5
v 24.1299 0 21.575
v 24.075 0 21.6299
v 24 0 21.65
v 23.925 0 21.6299
v 23.8701 0 21.575
v 23.85 0 21.5
v 23.8701 0 21.425
v 23.925 0 21.3701
v 24 0 21.35
v 24.075 0 21.3701
v 24.1299 0 21.425
v 24.15 3.5 21.5
v 24.1299 3.5 21.575
v 24.075 3.5 21.6299
v 24 3.5 21.65
v 23.925 3.5 21.6299
v 23.8701 3.5 21.575
v 23.85 3.5 21.5
v 23.8701 3.5 21.425
v 23.925 3.5 21.3701
v 24 3.5 21.35
v 24.075 3.5 21.3701
v 24.1299 3.5 21.425
v 24 0 21.5
v 24 3.5 21.5
f 420 408 407
f 419 395 396
f 395 408 396
f 395 407 408
f 420 409 408
f 419 396 397
f 396 409 397
f 396 408 409
f 420 410 409
f 419 397 398
f 397 410 398
f 397 409 410
f 420 411 410
f 419 398 399
f 398 411 399
f 398 410 411
f 420 412 411
f 419 399 400
f 399 412 400
f 399 411 412
f 420 413 412
f 419 400 401
f 400 413 401
f 400 412 413
f 420 414 413
f 419 401 402
f 401 414 402
f 401 413 414
f 420 415 414
f 419 402 403
f 402 415 403
f 402 414 415
f 420 416 415
f 419 403 404
f 403 416 404
f 403 415 416
f 420 417 416
f 419 404 405
f 404 417 405
f 404 416 417
f 420 418 417
f 419 405 406
f 405 418 406
f 405 417 418
f 420 407 418
f 419 406 395
f 406 407 395
f 406 418 407
o NoticeBoard_board
usemtl wood
v 8.85 0 23
v 9.15 0 23
v 9.15 0 25
v 8.85 0 25
v 8.85 2.3 23
v 9.15 2.3 23
v 9.15 2.3 25
v 8.85 2.3 25
f 425 427 426
f 425 428 427
f 421 422 423
f 421 423 424
f 421 426 422
f 421 425 426
f 424 423 427
f 424 427 428
f 421 424 428
f 421 428 425
f 422 427 423
f 422 426 427
