# Avalon chunk: town_se_01
# Generated by tools/Avalon.ChunkGen (town); regenerate it rather than editing it by hand
o Floor
v 0 -0.05 0
v 30 -0.05 0
v 30 -0.05 30
v 0 -0.05 30
v 0 0.05 0
v 30 0.05 0
v 30 0.05 30
v 0 0.05 30
f 5 7 6
f 5 8 7
f 1 2 3
f 1 3 4
f 1 6 2
f 1 5 6
f 4 3 7
f 4 7 8
f 1 4 8
f 1 8 5
f 2 7 3
f 2 6 7
o Wall_N_L
usemtl stone
v 0 0 29.75
v 12 0 29.75
v 12 0 30.25
v 0 0 30.25
v 0 2 29.75
v 12 2 29.75
v 12 2 30.25
v 0 2 30.25
f 13 15 14
f 13 16 15
f 9 10 11
f 9 11 12
f 9 14 10
f 9 13 14
f 12 11 15
f 12 15 16
f 9 12 16
f 9 16 13
f 10 15 11
f 10 14 15
o Wall_N_R
usemtl stone
v 18 0 29.75
v 30 0 29.75
v 30 0 30.25
v 18 0 30.25
v 18 2 29.75
v 30 2 29.75
v 30 2 30.25
v 18 2 30.25
f 21 23 22
f 21 24 23
f 17 18 19
f 17 19 20
f 17 22 18
f 17 21 22
f 20 19 23
f 20 23 24
f 17 20 24
f 17 24 21
f 18 23 19
f 18 22 23
o Wall_E
usemtl stone
v 29.75 0 0
v 30.25 0 0
v 30.25 0 30
v 29.75 0 30
v 29.75 2 0
v 30.25 2 0
v 30.25 2 30
v 29.75 2 30
f 29 31 30
f 29 32 31
f 25 26 27
f 25 27 28
f 25 30 26
f 25 29 30
f 28 27 31
f 28 31 32
f 25 28 32
f 25 32 29
f 26 31 27
f 26 30 31
o Wall_S
usemtl stone
v 0 0 -0.25
v 30 0 -0.25
v 30 0 0.25
v 0 0 0.25
v 0 2 -0.25
v 30 2 -0.25
v 30 2 0.25
v 0 2 0.25
f 37 39 38
f 37 40 39
f 33 34 35
f 33 35 36
f 33 38 34
f 33 37 38
f 36 35 39
f 36 39 40
f 33 36 40
f 33 40 37
f 34 39 35
f 34 38 39
o Wall_W_L
usemtl stone
v -0.25 0 0
v 0.25 0 0
v 0.25 0 12
v -0.25 0 12
v -0.25 2 0
v 0.25 2 0
v 0.25 2 12
v -0.25 2 12
f 45 47 46
f 45 48 47
f 41 42 43
f 41 43 44
f 41 46 42
f 41 45 46
f 44 43 47
f 44 47 48
f 41 44 48
f 41 48 45
f 42 47 43
f 42 46 47
o Wall_W_R
usemtl stone
v -0.25 0 18
v 0.25 0 18
v 0.25 0 30
v -0.25 0 30
v -0.25 2 18
v 0.25 2 18
v 0.25 2 30
v -0.25 2 30
f 53 55 54
f 53 56 55
f 49 50 51
f 49 51 52
f 49 54 50
f 49 53 54
f 52 51 55
f 52 55 56
f 49 52 56
f 49 56 53
f 50 55 51
f 50 54 55
o Smithy_body
usemtl stone
v 6 0 2.8
v 14 0 2.8
v 14 0 8.5
v 6 0 8.5
v 6 4 2.8
v 14 4 2.8
v 14 4 8.5
v 6 4 8.5
f 61 63 62
f 61 64 63
f 57 58 59
f 57 59 60
f 57 62 58
f 57 61 62
f 60 59 63
f 60 63 64
f 57 60 64
f 57 64 61
f 58 63 59
f 58 62 63
o Smithy_roof
usemtl roof
v 5.7 4 2.5
v 14.3 4 2.5
v 14.3 4 8.8
v 5.7 4 8.8
v 5.7 5.8 5.65
v 14.3 5.8 5.65
f 65 66 67
f 65 67 68
f 65 70 66
f 65 69 70
f 68 67 70
f 68 70 69
f 65 68 69
f 66 70 67
o Smithy_chimney
usemtl stone
v 13 0 4
v 12.933 0 4.25
v 12.75 0 4.433
v 12.5 0 4.5
v 12.25 0 4.433
v 12.067 0 4.25
v 12 0 4
v 12.067 0 3.75
v 12.25 0 3.567
v 12.5 0 3.5
v 12.75 0 3.567
v 12.933 0 3.75
v 13 7 4
v 12.933 7 4.25
v 12.75 7 4.433
v 12.5 7 4.5
v 12.25 7 4.433
v 12.067 7 4.25
v 12 7 4
v 12.067 7 3.75
v 12.25 7 3.567
v 12.5 7 3.5
v 12.75 7 3.567
v 12.933 7 3.75
v 12.5 0 4
v 12.5 7 4
f 96 84 83
f 95 71 72
f 71 84 72
f 71 83 84
f 96 85 84
f 95 72 73
f 72 85 73
f 72 84 85
f 96 86 85
f 95 73 74
f 73 86 74
f 73 85 86
f 96 87 86
f 95 74 75
f 74 87 75
f 74 86 87
f 96 88 87
f 95 75 76
f 75 88 76
f 75 87 88
f 96 89 88
f 95 76 77
f 76 89 77
f 76 88 89
f 96 90 89
f 95 77 78
f 77 90 78
f 77 89 90
f 96 91 90
f 95 78 79
f 78 91 79
f 78 90 91
f 96 92 91
f 95 79 80
f 79 92 80
f 79 91 92
f 96 93 92
f 95 80 81
f 80 93 81
f 80 92 93
f 96 94 93
f 95 81 82
f 81 94 82
f 81 93 94
f 96 83 94
f 95 82 71
f 82 83 71
f 82 94 83
o Smithy_post_1
usemtl wood
v 7.32 0 10.8
v 7.3039 0 10.86
v 7.26 0 10.9039
v 7.2 0 10.92
v 7.14 0 10.9039
v 7.0961 0 10.86
v 7.08 0 10.8
v 7.0961 0 10.74
v 7.14 0 10.6961
v 7.2 0 10.68
v 7.26 0 10.6961
v 7.3039 0 10.74
v 7.32 3 10.8
v 7.3039 3 10.86
v 7.26 3 10.9039
v 7.2 3 10.92
v 7.14 3 10.9039
v 7.0961 3 10.86
v 7.08 3 10.8
v 7.0961 3 10.74
v 7.14 3 10.6961
v 7.2 3 10.68
v 7.26 3 10.6961
v 7.3039 3 10.74
v 7.2 0 10.8
v 7.2 3 10.8
f 122 110 109
f 121 97 98
f 97 110 98
f 97 109 110
f 122 111 110
f 121 98 99
f 98 111 99
f 98 110 111
f 122 112 111
f 121 99 100
f 99 112 100
f 99 111 112
f 122 113 112
f 121 100 101
f 100 113 101
f 100 112 113
f 122 114 113
f 121 101 102
f 101 114 102
f 101 113 114
f 122 115 114
f 121 102 103
f 102 115 103
f 102 114 115
f 122 116 115
f 121 103 104
f 103 116 104
f 103 115 116
f 122 117 116
f 121 104 105
f 104 117 105
f 104 116 117
f 122 118 117
f 121 105 106
f 105 118 106
f 105 117 118
f 122 119 118
f 121 106 107
f 106 119 107
f 106 118 119
f 122 120 119
f 121 107 108
f 107 120 108
f 107 119 120
f 122 109 120
f 121 108 97
f 108 109 97
f 108 120 109
o Smithy_post_2
usemtl wood
v 10.92 0 10.8
v 10.9039 0 10.86
v 10.86 0 10.9039
v 10.8 0 10.92
v 10.74 0 10.9039
v 10.6961 0 10.86
v 10.68 0 10.8
v 10.6961 0 10.74
v 10.74 0 10.6961
v 10.8 0 10.68
v 10.86 0 10.6961
v 10.9039 0 10.74
v 10.92 3 10.8
v 10.9039 3 10.86
v 10.86 3 10.9039
v 10.8 3 10.92
v 10.74 3 10.9039
v 10.6961 3 10.86
v 10.68 3 10.8
v 10.6961 3 10.74
v 10.74 3 10.6961
v 10.8 3 10.68
v 10.86 3 10.6961
v 10.9039 3 10.74
v 10.8 0 10.8
v 10.8 3 10.8
f 148 136 135
f 147 123 124
f 123 136 124
f 123 135 136
f 148 137 136
f 147 124 125
f 124 137 125
f 124 136 137
f 148 138 137
f 147 125 126
f 125 138 126
f 125 137 138
f 148 139 138
f 147 126 127
f 126 139 127
f 126 138 139
f 148 140 139
f 147 127 128
f 127 140 128
f 127 139 140
f 148 141 140
f 147 128 129
f 128 141 129
f 128 140 141
f 148 142 141
f 147 129 130
f 129 142 130
f 129 141 142
f 148 143 142
f 147 130 131
f 130 143 131
f 130 142 143
f 148 144 143
f 147 131 132
f 131 144 132
f 131 143 144
f 148 145 144
f 147 132 133
f 132 145 133
f 132 144 145
f 148 146 145
f 147 133 134
f 133 146 134
f 133 145 146
f 148 135 146
f 147 134 123
f 134 135 123
f 134 146 135
o Smithy_lean_to_roof
usemtl wood
v 6.9 3 8.5
v 11.1 3 8.5
v 11.1 3 11.1
v 6.9 3 11.1
v 6.9 3.25 8.5
v 11.1 3.25 8.5
v 11.1 3.25 11.1
v 6.9 3.25 11.1
f 153 155 154
f 153 156 155
f 149 150 151
f 149 151 152
f 149 154 150
f 149 153 154
f 152 151 155
f 152 155 156
f 149 152 156
f 149 156 153
f 150 155 151
f 150 154 155
o Smithy_anvil
usemtl metal
v 7.2 0 9.4
v 8 0 9.4
v 8 0 9.8
v 7.2 0 9.8
v 7.2 0.9 9.4
v 8 0.9 9.4
v 8 0.9 9.8
v 7.2 0.9 9.8
f 161 163 162
f 161 164 163
f 157 158 159
f 157 159 160
f 157 162 158
f 157 161 162
f 160 159 163
f 160 163 164
f 157 160 164
f 157 164 161
f 158 163 159
f 158 162 163
o Smithy_quench_trough
usemtl wood
v 12.8 0 8.6
v 14.3 0 8.6
v 14.3 0 9.2
v 12.8 0 9.2
v 12.8 0.7 8.6
v 14.3 0.7 8.6
v 14.3 0.7 9.2
v 12.8 0.7 9.2
f 169 171 170
f 169 172 171
f 165 166 167
f 165 167 168
f 165 170 166
f 165 169 170
f 168 167 171
f 168 171 172
f 165 168 172
f 165 172 169
f 166 171 167
f 166 170 171
o Smithy_wood_pile
usemtl wood
v 3.5 0 3
v 5.5 0 3
v 5.5 0 4
v 3.5 0 4
v 3.5 1 3
v 5.5 1 3
v 5.5 1 4
v 3.5 1 4
f 177 179 178
f 177 180 179
f 173 174 175
f 173 175 176
f 173 178 174
f 173 177 178
f 176 175 179
f 176 179 180
f 173 176 180
f 173 180 177
f 174 179 175
f 174 178 179
o BarrelsSmithy_barrel_1
usemtl wood
v 15.9 0 4.5
v 15.8464 0 4.7
v 15.7 0 4.8464
v 15.5 0 4.9
v 15.3 0 4.8464
v 15.1536 0 4.7
v 15.1 0 4.5
v 15.1536 0 4.3
v 15.3 0 4.1536
v 15.5 0 4.1
v 15.7 0 4.1536
v 15.8464 0 4.3
v 15.9 1 4.5
v 15.8464 1 4.7
v 15.7 1 4.8464
v 15.5 1 4.9
v 15.3 1 4.8464
v 15.1536 1 4.7
v 15.1 1 4.5
v 15.1536 1 4.3
v 15.3 1 4.1536
v 15.5 1 4.1
v 15.7 1 4.1536
v 15.8464 1 4.3
v 15.5 0 4.5
v 15.5 1 4.5
f 206 194 193
f 205 181 182
f 181 194 182
f 181 193 194
f 206 195 194
f 205 182 183
f 182 195 183
f 182 194 195
f 206 196 195
f 205 183 184
f 183 196 184
f 183 195 196
f 206 197 196
f 205 184 185
f 184 197 185
f 184 196 197
f 206 198 197
f 205 185 186
f 185 198 186
f 185 197 198
f 206 199 198
f 205 186 187
f 186 199 187
f 186 198 199
f 206 200 199
f 205 187 188
f 187 200 188
f 187 199 200
f 206 201 200
f 205 188 189
f 188 201 189
f 188 200 201
f 206 202 201
f 205 189 190
f 189 202 190
f 189 201 202
f 206 203 202
f 205 190 191
f 190 203 191
f 190 202 203
f 206 204 203
f 205 191 192
f 191 204 192
f 191 203 204
f 206 193 204
f 205 192 181
f 192 193 181
f 192 204 193
o BarrelsSmithy_barrel_2
usemtl wood
v 16.8 0 5.3
v 16.7464 0 5.5
v 16.6 0 5.6464
v 16.4 0 5.7
v 16.2 0 5.6464
v 16.0536 0 5.5
v 16 0 5.3
v 16.0536 0 5.1
v 16.2 0 4.9536
v 16.4 0 4.9
v 16.6 0 4.9536
v 16.7464 0 5.1
v 16.8 1 5.3
v 16.7464 1 5.5
v 16.6 1 5.6464
v 16.4 1 5.7
v 16.2 1 5.6464
v 16.0536 1 5.5
v 16 1 5.3
v 16.0536 1 5.1
v 16.2 1 4.9536
v 16.4 1 4.9
v 16.6 1 4.9536
v 16.7464 1 5.1
v 16.4 0 5.3
v 16.4 1 5.3
f 232 220 219
f 231 207 208
f 207 220 208
f 207 219 220
f 232 221 220
f 231 208 209
f 208 221 209
f 208 220 221
f 232 222 221
f 231 209 210
f 209 222 210
f 209 221 222
f 232 223 222
f 231 210 211
f 210 223 211
f 210 222 223
f 232 224 223
f 231 211 212
f 211 224 212
f 211 223 224
f 232 225 224
f 231 212 213
f 212 225 213
f 212 224 225
f 232 226 225
f 231 213 214
f 213 226 214
f 213 225 226
f 232 227 226
f 231 214 215
f 214 227 215
f 214 226 227
f 232 228 227
f 231 215 216
f 215 228 216
f 215 227 228
f 232 229 228
f 231 216 217
f 216 229 217
f 216 228 229
f 232 230 229
f 231 217 218
f 217 230 218
f 217 229 230
f 232 219 230
f 231 218 207
f 218 219 207
f 218 230 219
o ArmourersStall_counter
usemtl wood
v 25 0 13.5
v 25.4 0 13.5
v 25.4 0 16.5
v 25 0 16.5
v 25 1 13.5
v 25.4 1 13.5
v 25.4 1 16.5
v 25 1 16.5
f 237 239 238
f 237 240 239
f 233 234 235
f 233 235 236
f 233 238 234
f 233 237 238
f 236 235 239
f 236 239 240
f 233 236 240
f 233 240 237
f 234 239 235
f 234 238 239
o ArmourersStall_post_1
usemtl wood
v 25.3 0 13.6
v 25.2866 0 13.65
v 25.25 0 13.6866
v 25.2 0 13.7
v 25.15 0 13.6866
v 25.1134 0 13.65
v 25.1 0 13.6
v 25.1134 0 13.55
v 25.15 0 13.5134
v 25.2 0 13.5
v 25.25 0 13.5134
v 25.2866 0 13.55
v 25.3 2.9 13.6
v 25.2866 2.9 13.65
v 25.25 2.9 13.6866
v 25.2 2.9 13.7
v 25.15 2.9 13.6866
v 25.1134 2.9 13.65
v 25.1 2.9 13.6
v 25.1134 2.9 13.55
v 25.15 2.9 13.5134
v 25.2 2.9 13.5
v 25.25 2.9 13.5134
v 25.2866 2.9 13.55
v 25.2 0 13.6
v 25.2 2.9 13.6
f 266 254 253
f 265 241 242
f 241 254 242
f 241 253 254
f 266 255 254
f 265 242 243
f 242 255 243
f 242 254 255
f 266 256 255
f 265 243 244
f 243 256 244
f 243 255 256
f 266 257 256
f 265 244 245
f 244 257 245
f 244 256 257
f 266 258 257
f 265 245 246
f 245 258 246
f 245 257 258
f 266 259 258
f 265 246 247
f 246 259 247
f 246 258 259
f 266 260 259
f 265 247 248
f 247 260 248
f 247 259 260
f 266 261 260
f 265 248 249
f 248 261 249
f 248 260 261
f 266 262 261
f 265 249 250
f 249 262 250
f 249 261 262
f 266 263 262
f 265 250 251
f 250 263 251
f 250 262 263
f 266 264 263
f 265 251 252
f 251 264 252
f 251 263 264
f 266 253 264
f 265 252 241
f 252 253 241
f 252 264 253
o ArmourersStall_post_2
usemtl wood
v 25.3 0 16.4
v 25.2866 0 16.45
v 25.25 0 16.4866
v 25.2 0 16.5
v 25.15 0 16.4866
v 25.1134 0 16.45
v 25.1 0 16.4
v 25.1134 0 16.35
v 25.15 0 16.3134
v 25.2 0 16.3
v 25.25 0 16.3134
v 25.2866 0 16.35
v 25.3 2.9 16.4
v 25.2866 2.9 16.45
v 25.25 2.9 16.4866
v 25.2 2.9 16.5
v 25.15 2.9 16.4866
v 25.1134 2.9 16.45
v 25.1 2.9 16.4
v 25.1134 2.9 16.35
v 25.15 2.9 16.3134
v 25.2 2.9 16.3
v 25.25 2.9 16.3134
v 25.2866 2.9 16.35
v 25.2 0 16.4
v 25.2 2.9 16.4
f 292 280 279
f 291 267 268
f 267 280 268
f 267 279 280
f 292 281 280
f 291 268 269
f 268 281 269
f 268 280 281
f 292 282 281
f 291 269 270
f 269 282 270
f 269 281 282
f 292 283 282
f 291 270 271
f 270 283 271
f 270 282 283
f 292 284 283
f 291 271 272
f 271 284 272
f 271 283 284
f 292 285 284
f 291 272 273
f 272 285 273
f 272 284 285
f 292 286 285
f 291 273 274
f 273 286 274
f 273 285 286
f 292 287 286
f 291 274 275
f 274 287 275
f 274 286 287
f 292 288 287
f 291 275 276
f 275 288 276
f 275 287 288
f 292 289 288
f 291 276 277
f 276 289 277
f 276 288 289
f 292 290 289
f 291 277 278
f 277 290 278
f 277 289 290
f 292 279 290
f 291 278 267
f 278 279 267
f 278 290 279
o ArmourersStall_post_3
usemtl wood
v 27.4 0 13.6
v 27.3866 0 13.65
v 27.35 0 13.6866
v 27.3 0 13.7
v 27.25 0 13.6866
v 27.2134 0 13.65
v 27.2 0 13.6
v 27.2134 0 13.55
v 27.25 0 13.5134
v 27.3 0 13.5
v 27.35 0 13.5134
v 27.3866 0 13.55
v 27.4 2.9 13.6
v 27.3866 2.9 13.65
v 27.35 2.9 13.6866
v 27.3 2.9 13.7
v 27.25 2.9 13.6866
v 27.2134 2.9 13.65
v 27.2 2.9 13.6
v 27.2134 2.9 13.55
v 27.25 2.9 13.5134
v 27.3 2.9 13.5
v 27.35 2.9 13.5134
v 27.3866 2.9 13.55
v 27.3 0 13.6
v 27.3 2.9 13.6
f 318 306 305
f 317 293 294
f 293 306 294
f 293 305 306
f 318 307 306
f 317 294 295
f 294 307 295
f 294 306 307
f 318 308 307
f 317 295 296
f 295 308 296
f 295 307 308
f 318 309 308
f 317 296 297
f 296 309 297
f 296 308 309
f 318 310 309
f 317 297 298
f 297 310 298
f 297 309 310
f 318 311 310
f 317 298 299
f 298 311 299
f 298 310 311
f 318 312 311
f 317 299 300
f 299 312 300
f 299 311 312
f 318 313 312
f 317 300 301
f 300 313 301
f 300 312 313
f 318 314 313
f 317 301 302
f 301 314 302
f 301 313 314
f 318 315 314
f 317 302 303
f 302 315 303
f 302 314 315
f 318 316 315
f 317 303 304
f 303 316 304
f 303 315 316
f 318 305 316
f 317 304 293
f 304 305 293
f 304 316 305
o ArmourersStall_post_4
usemtl wood
v 27.4 0 16.4
v 27.3866 0 16.45
v 27.35 0 16.4866
v 27.3 0 16.5
v 27.25 0 16.4866
v 27.2134 0 16.45
v 27.2 0 16.4
v 27.2134 0 16.35
v 27.25 0 16.3134
v 27.3 0 16.3
v 27.35 0 16.3134
v 27.3866 0 16.35
v 27.4 2.9 16.4
v 27.3866 2.9 16.45
v 27.35 2.9 16.4866
v 27.3 2.9 16.5
v 27.25 2.9 16.4866
v 27.2134 2.9 16.45
v 27.2 2.9 16.4
v 27.2134 2.9 16.35
v 27.25 2.9 16.3134
v 27.3 2.9 16.3
v 27.35 2.9 16.3134
v 27.3866 2.9 16.35
v 27.3 0 16.4
v 27.3 2.9 16.4
f 344 332 331
f 343 319 320
f 319 332 320
f 319 331 332
f 344 333 332
f 343 320 321
f 320 333 321
f 320 332 333
f 344 334 333
f 343 321 322
f 321 334 322
f 321 333 334
f 344 335 334
f 343 322 323
f 322 335 323
f 322 334 335
f 344 336 335
f 343 323 324
f 323 336 324
f 323 335 336
f 344 337 336
f 343 324 325
f 324 337 325
f 324 336 337
f 344 338 337
f 343 325 326
f 325 338 326
f 325 337 338
f 344 339 338
f 343 326 327
f 326 339 327
f 326 338 339
f 344 340 339
f 343 327 328
f 327 340 328
f 327 339 340
f 344 341 340
f 343 328 329
f 328 341 329
f 328 340 341
f 344 342 341
f 343 329 330
f 329 342 330
f 329 341 342
f 344 331 342
f 343 330 319
f 330 331 319
f 330 342 331
o ArmourersStall_roof
usemtl cloth
v 24.6 2.9 13.1
v 27.6 2.9 13.1
v 27.6 2.9 16.9
v 24.6 2.9 16.9
v 24.6 3.15 13.1
v 27.6 3.15 13.1
v 27.6 3.15 16.9
v 24.6 3.15 16.9
f 349 351 350
f 349 352 351
f 345 346 347
f 345 347 348
f 345 350 346
f 345 349 350
f 348 347 351
f 348 351 352
f 345 348 352
f 345 352 349
f 346 351 347
f 346 350 351
o CratesArmourer_crate_1
usemtl wood
v 25 0 19.5
v 26 0 19.5
v 26 0 20.5
v 25 0 20.5
v 25 1 19.5
v 26 1 19.5
v 26 1 20.5
v 25 1 20.5
f 357 359 358
f 357 360 359
f 353 354 355
f 353 355 356
f 353 358 354
f 353 357 358
f 356 355 359
f 356 359 360
f 353 356 360
f 353 360 357
f 354 359 355
f 354 358 359
o CratesArmourer_crate_2
usemtl wood
v 26 0 19.5
v 27 0 19.5
v 27 0 20.5
v 26 0 20.5
v 26 1 19.5
v 27 1 19.5
v 27 1 20.5
v 26 1 20.5
f 365 367 366
f 365 368 367
f 361 362 363
f 361 363 364
f 361 366 362
f 361 365 366
f 364 363 367
f 364 367 368
f 361 364 368
f 361 368 365
f 362 367 363
f 362 366 367
o GeneralGoodsStall_counter
usemtl wood
v 20 0 24
v 23 0 24
v 23 0 24.4
v 20 0 24.4
v 20 1 24
v 23 1 24
v 23 1 24.4
v 20 1 24.4
f 373 375 374
f 373 376 375
f 369 370 371
f 369 371 372
f 369 374 370
f 369 373 374
f 372 371 375
f 372 375 376
f 369 372 376
f 369 376 373
f 370 375 371
f 370 374 375
o GeneralGoodsStall_post_1
usemtl wood
v 20.2 0 24.2
v 20.1866 0 24.25
v 20.15 0 24.2866
v 20.1 0 24.3
v 20.05 0 24.2866
v 20.0134 0 24.25
v 20 0 24.2
v 20.0134 0 24.15
v 20.05 0 24.1134
v 20.1 0 24.1
v 20.15 0 24.1134
v 20.1866 0 24.15
v 20.2 2.9 24.2
v 20.1866 2.9 24.25
v 20.15 2.9 24.2866
v 20.1 2.9 24.3
v 20.05 2.9 24.2866
v 20.0134 2.9 24.25
v 20 2.9 24.2
v 20.0134 2.9 24.15
v 20.05 2.9 24.1134
v 20.1 2.9 24.1
v 20.15 2.9 24.1134
v 20.1866 2.9 24.15
v 20.1 0 24.2
v 20.1 2.9 24.2
f 402 390 389
f 401 377 378
f 377 390 378
f 377 389 390
f 402 391 390
f 401 378 379
f 378 391 379
f 378 390 391
f 402 392 391
f 401 379 380
f 379 392 380
f 379 391 392
f 402 393 392
f 401 380 381
f 380 393 381
f 380 392 393
f 402 394 393
f 401 381 382
f 381 394 382
f 381 393 394
f 402 395 394
f 401 382 383
f 382 395 383
f 382 394 395
f 402 396 395
f 401 383 384
f 383 396 384
f 383 395 396
f 402 397 396
f 401 384 385
f 384 397 385
f 384 396 397
f 402 398 397
f 401 385 386
f 385 398 386
f 385 397 398
f 402 399 398
f 401 386 387
f 386 399 387
f 386 398 399
f 402 400 399
f 401 387 388
f 387 400 388
f 387 399 400
f 402 389 400
f 401 388 377
f 388 389 377
f 388 400 389
o GeneralGoodsStall_post_2
usemtl wood
v 23 0 24.2
v 22.9866 0 24.25
v 22.95 0 24.2866
v 22.9 0 24.3
v 22.85 0 24.2866
v 22.8134 0 24.25
v 22.8 0 24.2
v 22.8134 0 24.15
v 22.85 0 24.1134
v 22.9 0 24.1
v 22.95 0 24.1134
v 22.9866 0 24.15
v 23 2.9 24.2
v 22.9866 2.9 24.25
v 22.95 2.9 24.2866
v 22.9 2.9 24.3
v 22.85 2.9 24.2866
v 22.8134 2.9 24.25
v 22.8 2.9 24.2
v 22.8134 2.9 24.15
v 22.85 2.9 24.1134
v 22.9 2.9 24.1
v 22.95 2.9 24.1134
v 22.9866 2.9 24.15
v 22.9 0 24.2
v 22.9 2.9 24.2
f 428 416 415
f 427 403 404
f 403 416 404
f 403 415 416
f 428 417 416
f 427 404 405
f 404 417 405
f 404 416 417
f 428 418 417
f 427 405 406
f 405 418 406
f 405 417 418
f 428 419 418
f 427 406 407
f 406 419 407
f 406 418 419
f 428 420 419
f 427 407 408
f 407 420 408
f 407 419 420
f 428 421 420
f 427 408 409
f 408 421 409
f 408 420 421
f 428 422 421
f 427 409 410
f 409 422 410
f 409 421 422
f 428 423 422
f 427 410 411
f 410 423 411
f 410 422 423
f 428 424 423
f 427 411 412
f 411 424 412
f 411 423 424
f 428 425 424
f 427 412 413
f 412 425 413
f 412 424 425
f 428 426 425
f 427 413 414
f 413 426 414
f 413 425 426
f 428 415 426
f 427 414 403
f 414 415 403
f 414 426 415
o GeneralGoodsStall_post_3
usemtl wood
v 20.2 0 26.4
v 20.1866 0 26.45
v 20.15 0 26.4866
v 20.1 0 26.5
v 20.05 0 26.4866
v 20.0134 0 26.45
v 20 0 26.4
v 20.0134 0 26.35
v 20.05 0 26.3134
v 20.1 0 26.3
v 20.15 0 26.3134
v 20.1866 0 26.35
v 20.2 2.9 26.4
v 20.1866 2.9 26.45
v 20.15 2.9 26.4866
v 20.1 2.9 26.5
v 20.05 2.9 26.4866
v 20.0134 2.9 26.45
v 20 2.9 26.4
v 20.0134 2.9 26.35
v 20.05 2.9 26.3134
v 20.1 2.9 26.3
v 20.15 2.9 26.3134
v 20.1866 2.9 26.35
v 20.1 0 26.4
v 20.1 2.9 26.4
f 454 442 441
f 453 429 430
f 429 442 430
f 429 441 442
f 454 443 442
f 453 430 431
f 430 443 431
f 430 442 443
f 454 444 443
f 453 431 432
f 431 444 432
f 431 443 444
f 454 445 444
f 453 432 433
f 432 445 433
f 432 444 445
f 454 446 445
f 453 433 434
f 433 446 434
f 433 445 446
f 454 447 446
f 453 434 435
f 434 447 435
f 434 446 447
f 454 448 447
f 453 435 436
f 435 448 436
f 435 447 448
f 454 449 448
f 453 436 437
f 436 449 437
f 436 448 449
f 454 450 449
f 453 437 438
f 437 450 438
f 437 449 450
f 454 451 450
f 453 438 439
f 438 451 439
f 438 450 451
f 454 452 451
f 453 439 440
f 439 452 440
f 439 451 452
f 454 441 452
f 453 440 429
f 440 441 429
f 440 452 441
o GeneralGoodsStall_post_4
usemtl wood
v 23 0 26.4
v 22.9866 0 26.45
v 22.95 0 26.4866
v 22.9 0 26.5
v 22.85 0 26.4866
v 22.8134 0 26.45
v 22.8 0 26.4
v 22.8134 0 26.35
v 22.85 0 26.3134
v 22.9 0 26.3
v 22.95 0 26.3134
v 22.9866 0 26.35
v 23 2.9 26.4
v 22.9866 2.9 26.45
v 22.95 2.9 26.4866
v 22.9 2.9 26.5
v 22.85 2.9 26.4866
v 22.8134 2.9 26.45
v 22.8 2.9 26.4
v 22.8134 2.9 26.35
v 22.85 2.9 26.3134
v 22.9 2.9 26.3
v 22.95 2.9 26.3134
v 22.9866 2.9 26.35
v 22.9 0 26.4
v 22.9 2.9 26.4
f 480 468 467
f 479 455 456
f 455 468 456
f 455 467 468
f 480 469 468
f 479 456 457
f 456 469 457
f 456 468 469
f 480 470 469
f 479 457 458
f 457 470 458
f 457 469 470
f 480 471 470
f 479 458 459
f 458 471 459
f 458 470 471
f 480 472 471
f 479 459 460
f 459 472 460
f 459 471 472
f 480 473 472
f 479 460 461
f 460 473 461
f 460 472 473
f 480 474 473
f 479 461 462
f 461 474 462
f 461 473 474
f 480 475 474
f 479 462 463
f 462 475 463
f 462 474 475
f 480 476 475
f 479 463 464
f 463 476 464
f 463 475 476
f 480 477 476
f 479 464 465
f 464 477 465
f 464 476 477
f 480 478 477
f 479 465 466
f 465 478 466
f 465 477 478
f 480 467 478
f 479 466 455
f 466 467 455
f 466 478 467
o GeneralGoodsStall_awning
usemtl cloth_2
v 19.4 2.9 23.2
v 23.6 2.9 23.2
v 23.6 2.9 27
v 19.4 2.9 27
v 19.4 3.2 23.2
v 23.6 3.2 23.2
v 23.6 3.2 27
v 19.4 3.2 27
f 485 487 486
f 485 488 487
f 481 482 483
f 481 483 484
f 481 486 482
f 481 485 486
f 484 483 487
f 484 487 488
f 481 484 488
f 481 488 485
f 482 487 483
f 482 486 487
o CratesGeneralGoods_crate_1
usemtl wood
v 24.5 0 25
v 25.5 0 25
v 25.5 0 26
v 24.5 0 26
v 24.5 1 25
v 25.5 1 25
v 25.5 1 26
v 24.5 1 26
f 493 495 494
f 493 496 495
f 489 490 491
f 489 491 492
f 489 494 490
f 489 493 494
f 492 491 495
f 492 495 496
f 489 492 496
f 489 496 493
f 490 495 491
f 490 494 495
o CratesGeneralGoods_crate_2
usemtl wood
v 25.5 0 25
v 26.5 0 25
v 26.5 0 26
v 25.5 0 26
v 25.5 1 25
v 26.5 1 25
v 26.5 1 26
v 25.5 1 26
f 501 503 502
f 501 504 503
f 497 498 499
f 497 499 500
f 497 502 498
f 497 501 502
f 500 499 503
f 500 503 504
f 497 500 504
f 497 504 501
f 498 503 499
f 498 502 503
o BarrelsGeneralGoods_barrel
usemtl wood
v 24.6 0 23.4
v 24.5464 0 23.6
v 24.4 0 23.7464
v 24.2 0 23.8
v 24 0 23.7464
v 23.8536 0 23.6
v 23.8 0 23.4
v 23.8536 0 23.2
v 24 0 23.0536
v 24.2 0 23
v 24.4 0 23.0536
v 24.5464 0 23.2
v 24.6 1 23.4
v 24.5464 1 23.6
v 24.4 1 23.7464
v 24.2 1 23.8
v 24 1 23.7464
v 23.8536 1 23.6
v 23.8 1 23.4
v 23.8536 1 23.2
v 24 1 23.0536
v 24.2 1 23
v 24.4 1 23.0536
v 24.5464 1 23.2
v 24.2 0 23.4
v 24.2 1 23.4
f 530 518 517
f 529 505 506
f 505 518 506
f 505 517 518
f 530 519 518
f 529 506 507
f 506 519 507
f 506 518 519
f 530 520 519
f 529 507 508
f 507 520 508
f 507 519 520
f 530 521 520
f 529 508 509
f 508 521 509
f 508 520 521
f 530 522 521
f 529 509 510
f 509 522 510
f 509 521 522
f 530 523 522
f 529 510 511
f 510 523 511
f 510 522 523
f 530 524 523
f 529 511 512
f 511 524 512
f 511 523 524
f 530 525 524
f 529 512 513
f 512 525 513
f 512 524 525
f 530 526 525
f 529 513 514
f 513 526 514
f 513 525 526
f 530 527 526
f 529 514 515
f 514 527 515
f 514 526 527
f 530 528 527
f 529 515 516
f 515 528 516
f 515 527 528
f 530 517 528
f 529 516 505
f 516 517 505
f 516 528 517
o Benches_bench_market
usemtl wood
v 5.1 0 23.75
v 6.9 0 23.75
v 6.9 0 24.25
v 5.1 0 24.25
v 5.1 0.9 23.75
v 6.9 0.9 23.75
v 6.9 0.9 24.25
v 5.1 0.9 24.25
f 535 537 536
f 535 538 537
f 531 532 533
f 531 533 534
f 531 536 532
f 531 535 536
f 534 533 537
f 534 537 538
f 531 534 538
f 531 538 535
f 532 537 533
f 532 536 537
o LampPosts_lamp_post_1
usemtl metal
v 8.15 0 18.5
v 8.1299 0 18.575
v 8.075 0 18.6299
v 8 0 18.65
v 7.925 0 18.6299
v 7.8701 0 18.575
v 7.85 0 18.5
v 7.8701 0 18.425
v 7.925 0 18.3701
v 8 0 18.35
v 8.075 0 18.3701
v 8.1299 0 18.425
v 8.15 3.5 18.5
v 8.1299 3.5 18.575
v 8.075 3.5 18.6299
v 8 3.5 18.65
v 7.925 3.5 18.6299
v 7.8701 3.5 18.575
v 7.85 3.5 18.5
v 7.8701 3.5 18.425
v 7.925 3.5 18.3701
v 8 3.5 18.35
v 8.075 3.5 18.3701
v 8.1299 3.5 18.425
v 8 0 18.5
v 8 3.5 18.5
f 564 552 551
f 563 539 540
f 539 552 540
f 539 551 552
f 564 553 552
f 563 540 541
f 540 553 541
f 540 552 553
f 564 554 553
f 563 541 542
f 541 554 542
f 541 553 554
f 564 555 554
f 563 542 543
f 542 555 543
f 542 554 555
f 564 556 555
f 563 543 544
f 543 556 544
f 543 555 556
f 564 557 556
f 563 544 545
f 544 557 545
f 544 556 557
f 564 558 557
f 563 545 546
f 545 558 546
f 545 557 558
f 564 559 558
f 563 546 547
f 546 559 547
f 546 558 559
f 564 560 559
f 563 547 548
f 547 560 548
f 547 559 560
f 564 561 560
f 563 548 549
f 548 561 549
f 548 560 561
f 564 562 561
f 563 549 550
f 549 562 550
f 549 561 562
f 564 551 562
f 563 550 539
f 550 551 539
f 550 562 551
o LampPosts_lamp_post_2
usemtl metal
v 22.15 0 20
v 22.1299 0 20.075
v 22.075 0 20.1299
v 22 0 20.15
v 21.925 0 20.1299
v 21.8701 0 20.075
v 21.85 0 20
v 21.8701 0 19.925
v 21.925 0 19.8701
v 22 0 19.85
v 22.075 0 19.8701
v 22.1299 0 19.925
v 22.15 3.5 20
v 22.1299 3.5 20.075
v 22.075 3.5 20.1299
v 22 3.5 20.15
v 21.925 3.5 20.1299
v 21.8701 3.5 20.075
v 21.85 3.5 20
v 21.8701 3.5 19.925
v 21.925 3.5 19.8701
v 22 3.5 19.85
v 22.075 3.5 19.8701
v 22.1299 3.5 19.925
v 22 0 20
v 22 3.5 20
f 590 578 577
f 589 565 566
f 565 578 566
f 565 577 578
f 590 579 578
f 589 566 567
f 566 579 567
f 566 578 579
f 590 580 579
f 589 567 568
f 567 580 568
f 567 579 580
f 590 581 580
f 589 568 569
f 568 581 569
f 568 580 581
f 590 582 581
f 589 569 570
f 569 582 570
f 569 581 582
f 590 583 582
f 589 570 571
f 570 583 571
f 570 582 583
f 590 584 583
f 589 571 572
f 571 584 572
f 571 583 584
f 590 585 584
f 589 572 573
f 572 585 573
f 572 584 585
f 590 586 585
f 589 573 574
f 573 586 574
f 573 585 586
f 590 587 586
f 589 574 575
f 574 587 575
f 574 586 587
f 590 588 587
f 589 575 576
f 575 588 576
f 575 587 588
f 590 577 588
f 589 576 565
f 576 577 565
f 576 588 577
